<svg width="1280" height="2100" viewBox="0 0 1280 2100" fill="none" xmlns="http://www.w3.org/2000/svg">
<line x1="-7" y1="293.5" x2="1288" y2="293.5" stroke="#F2D1E9"/>
<line x1="-7" y1="881.5" x2="1288" y2="881.5" stroke="#F2D1E9"/>
<line x1="-11" y1="1567.5" x2="1284" y2="1567.5" stroke="#F2D1E9"/>
<line x1="-11" y1="2057.5" x2="1284" y2="2057.5" stroke="#F2D1E9"/>
<line x1="-7" y1="342.5" x2="1288" y2="342.5" stroke="#F2D1E9"/>
<line x1="-7" y1="930.5" x2="1288" y2="930.5" stroke="#F2D1E9"/>
<line x1="-11" y1="1616.5" x2="1284" y2="1616.5" stroke="#F2D1E9"/>
<line x1="-7" y1="48.5" x2="1288" y2="48.5" stroke="#F2D1E9"/>
<line x1="-7" y1="1077.5" x2="1288" y2="1077.5" stroke="#F2D1E9"/>
<line x1="-7" y1="636.5" x2="1288" y2="636.5" stroke="#F2D1E9"/>
<line x1="-11" y1="1322.5" x2="1284" y2="1322.5" stroke="#F2D1E9"/>
<line x1="-11" y1="1812.5" x2="1284" y2="1812.5" stroke="#F2D1E9"/>
<line x1="-7" y1="391.5" x2="1288" y2="391.5" stroke="#F2D1E9"/>
<line x1="-7" y1="979.5" x2="1288" y2="979.5" stroke="#F2D1E9"/>
<line x1="-11" y1="1665.5" x2="1284" y2="1665.5" stroke="#F2D1E9"/>
<line x1="-7" y1="97.5" x2="1288" y2="97.5" stroke="#F2D1E9"/>
<line x1="-7" y1="1126.5" x2="1288" y2="1126.5" stroke="#F2D1E9"/>
<line x1="-7" y1="685.5" x2="1288" y2="685.5" stroke="#F2D1E9"/>
<line x1="-11" y1="1371.5" x2="1284" y2="1371.5" stroke="#F2D1E9"/>
<line x1="-11" y1="1861.5" x2="1284" y2="1861.5" stroke="#F2D1E9"/>
<line x1="-7" y1="440.5" x2="1288" y2="440.5" stroke="#F2D1E9"/>
<line x1="-11" y1="1126.5" x2="1284" y2="1126.5" stroke="#F2D1E9"/>
<line x1="-7" y1="1028.5" x2="1288" y2="1028.5" stroke="#F2D1E9"/>
<line x1="-7" y1="146.5" x2="1288" y2="146.5" stroke="#F2D1E9"/>
<line x1="-7" y1="1175.5" x2="1288" y2="1175.5" stroke="#F2D1E9"/>
<line x1="-11" y1="1665.5" x2="1284" y2="1665.5" stroke="#F2D1E9"/>
<line x1="-7" y1="734.5" x2="1288" y2="734.5" stroke="#F2D1E9"/>
<line x1="-11" y1="1420.5" x2="1284" y2="1420.5" stroke="#F2D1E9"/>
<line x1="-11" y1="1910.5" x2="1284" y2="1910.5" stroke="#F2D1E9"/>
<line x1="-7" y1="489.5" x2="1288" y2="489.5" stroke="#F2D1E9"/>
<line x1="-11" y1="1175.5" x2="1284" y2="1175.5" stroke="#F2D1E9"/>
<line x1="-11" y1="1665.5" x2="1284" y2="1665.5" stroke="#F2D1E9"/>
<line x1="-7" y1="1077.5" x2="1288" y2="1077.5" stroke="#F2D1E9"/>
<line x1="-7" y1="195.5" x2="1288" y2="195.5" stroke="#F2D1E9"/>
<line x1="-7" y1="783.5" x2="1288" y2="783.5" stroke="#F2D1E9"/>
<line x1="-11" y1="1469.5" x2="1284" y2="1469.5" stroke="#F2D1E9"/>
<line x1="-11" y1="1959.5" x2="1284" y2="1959.5" stroke="#F2D1E9"/>
<line x1="-7" y1="538.5" x2="1288" y2="538.5" stroke="#F2D1E9"/>
<line x1="-11" y1="1224.5" x2="1284" y2="1224.5" stroke="#F2D1E9"/>
<line x1="-11" y1="1714.5" x2="1284" y2="1714.5" stroke="#F2D1E9"/>
<line x1="-7" y1="244.5" x2="1288" y2="244.5" stroke="#F2D1E9"/>
<line x1="-7" y1="832.5" x2="1288" y2="832.5" stroke="#F2D1E9"/>
<line x1="-11" y1="1518.5" x2="1284" y2="1518.5" stroke="#F2D1E9"/>
<line x1="-11" y1="2008.5" x2="1284" y2="2008.5" stroke="#F2D1E9"/>
<line x1="-7" y1="587.5" x2="1288" y2="587.5" stroke="#F2D1E9"/>
<line x1="-11" y1="1273.5" x2="1284" y2="1273.5" stroke="#F2D1E9"/>
<line x1="-11" y1="1763.5" x2="1284" y2="1763.5" stroke="#F2D1E9"/>
<line x1="89.5" x2="89.5" y2="2100" stroke="#F2D1E9"/>
<line x1="137.5" x2="137.5" y2="2100" stroke="#F2D1E9"/>
<line x1="185.5" x2="185.5" y2="2100" stroke="#F2D1E9"/>
<line x1="233.5" x2="233.5" y2="2100" stroke="#F2D1E9"/>
<line x1="281.5" x2="281.5" y2="2100" stroke="#F2D1E9"/>
<line x1="329.5" x2="329.5" y2="2100" stroke="#F2D1E9"/>
<line x1="377.5" x2="377.5" y2="2100" stroke="#F2D1E9"/>
<line x1="425.5" x2="425.5" y2="2100" stroke="#F2D1E9"/>
<line x1="473.5" x2="473.5" y2="2100" stroke="#F2D1E9"/>
<line x1="521.5" x2="521.5" y2="2100" stroke="#F2D1E9"/>
<line x1="569.5" x2="569.5" y2="2100" stroke="#F2D1E9"/>
<line x1="617.5" x2="617.5" y2="2100" stroke="#F2D1E9"/>
<line x1="665.5" x2="665.5" y2="2100" stroke="#F2D1E9"/>
<line x1="713.5" x2="713.5" y2="2100" stroke="#F2D1E9"/>
<line x1="761.5" x2="761.5" y2="2100" stroke="#F2D1E9"/>
<line x1="809.5" x2="809.5" y2="2100" stroke="#F2D1E9"/>
<line x1="857.5" x2="857.5" y2="2100" stroke="#F2D1E9"/>
<line x1="905.5" x2="905.5" y2="2100" stroke="#F2D1E9"/>
<line x1="953.5" x2="953.5" y2="2100" stroke="#F2D1E9"/>
<line x1="1001.5" x2="1001.5" y2="2100" stroke="#F2D1E9"/>
<line x1="1049.5" x2="1049.5" y2="2100" stroke="#F2D1E9"/>
<line x1="1097.5" x2="1097.5" y2="2100" stroke="#F2D1E9"/>
<line x1="1145.5" x2="1145.5" y2="2100" stroke="#F2D1E9"/>
<line x1="1193.5" x2="1193.5" y2="2100" stroke="#F2D1E9"/>
<line x1="1241.5" x2="1241.5" y2="2100" stroke="#F2D1E9"/>
<line x1="41.5" x2="41.5" y2="2100" stroke="#F2D1E9"/>
<rect x="137.5" y="418.5" width="934" height="1541" fill="#BFBAFC" stroke="black"/>
<rect x="179.5" y="454.5" width="927" height="1554" fill="#FFF0A2" stroke="black"/>
<rect x="158.5" y="78.5" width="948" height="272" rx="50.5" fill="#F2D1E9" stroke="black"/>
<path d="M650.321 283.82C653.481 278.855 658.209 275.119 662.07 270.726C668.976 262.867 674.412 253.922 680.916 245.761C684.456 241.319 687.896 239.18 692.175 235.971C694.055 234.56 693.297 240.597 693.215 242.946C692.893 252.124 689.857 259.978 687.769 268.768C687.565 269.626 684.129 280.123 686.974 278.558C698.014 272.486 705.207 261.565 714.142 253.226C716.834 250.713 722.012 245.795 725.462 244.415C726.493 244.002 726.1 256.462 726.073 256.897C725.55 265.444 724.758 274.179 722.524 282.474C718.968 295.684 737.059 280.667 740.147 278.436C752.421 269.568 765.941 260.137 776.983 249.677C777.556 249.134 779.577 246.488 780.042 248.453C782.187 257.508 778.788 269.418 776.922 278.191C775.481 284.96 772.969 291.42 771.476 298.139C771.317 298.854 769.057 303.141 769.763 303.401C774.598 305.182 784.843 293.985 787.385 291.653C799.974 280.102 810.354 266.659 822.018 254.266C823.372 252.827 829.508 244.384 829.789 248.453C830.431 257.763 825.611 267.23 826.546 276.111C827.292 283.194 846.534 268.401 850.777 268.401" stroke="white" stroke-width="60" stroke-linecap="round"/>
<g clip-path="url(#clip0_150_916)">
<path d="M248.855 306.979L210.258 309.529L213.108 352.667L197.215 353.717L197.627 359.961L268.01 355.311L267.598 349.067L251.705 350.117L248.855 306.979Z" fill="#D3D5D9"/>
<path d="M248.855 306.979L210.258 309.529L213.108 352.667L197.215 353.717L197.627 359.961L268.01 355.311L267.598 349.067L251.705 350.117L248.855 306.979Z" fill="url(#paint0_linear_150_916)" fill-opacity="0.4"/>
<path d="M156.108 272.718L161.968 302.606L238.591 314.852L267.626 277.169L253.474 276.161L266.982 241.373L219.828 258.331L216.337 241.112L191.163 270.402L175.73 253.613L168.591 277.883L156.108 272.718Z" fill="#FF5959"/>
<path d="M163.979 281.588L172.538 308.222L226.775 310.314L264.473 266.207L239.459 272.716L243.286 261.301L214.272 278.265L212.834 256.504L188.642 279.959L179.5 269.792L173.81 283.367L163.979 281.588Z" stroke="#FFDD2C" stroke-width="2"/>
<path d="M174.905 285.237C174.958 286.039 174.352 286.731 173.55 286.784C172.749 286.837 172.057 286.23 172.004 285.429C171.951 284.628 172.557 283.935 173.359 283.883C174.16 283.83 174.852 284.436 174.905 285.237Z" fill="#FFDD2C"/>
<path d="M205.088 271.587C205.141 272.388 204.534 273.08 203.733 273.133C202.932 273.186 202.239 272.58 202.186 271.778C202.133 270.977 202.74 270.285 203.541 270.232C204.343 270.179 205.035 270.786 205.088 271.587Z" fill="#FFDD2C"/>
<path d="M202.57 277.581C202.623 278.383 202.016 279.075 201.215 279.128C200.414 279.181 199.721 278.574 199.668 277.773C199.615 276.972 200.222 276.28 201.023 276.227C201.824 276.174 202.517 276.78 202.57 277.581Z" fill="#FFDD2C"/>
<path d="M182.643 284.726C182.695 285.528 182.089 286.22 181.288 286.273C180.486 286.326 179.794 285.719 179.741 284.918C179.688 284.117 180.295 283.424 181.096 283.371C181.897 283.318 182.59 283.925 182.643 284.726Z" fill="#FFDD2C"/>
<path d="M209.596 281.003C209.648 281.804 209.042 282.497 208.241 282.55C207.439 282.602 206.747 281.996 206.694 281.195C206.641 280.393 207.248 279.701 208.049 279.648C208.85 279.595 209.543 280.202 209.596 281.003Z" fill="#FFDD2C"/>
<path d="M236.037 269.542C236.09 270.343 235.484 271.036 234.682 271.089C233.881 271.142 233.189 270.535 233.136 269.734C233.083 268.933 233.69 268.24 234.491 268.187C235.292 268.134 235.984 268.741 236.037 269.542Z" fill="#FFDD2C"/>
<path d="M225.782 276.048C225.835 276.849 225.228 277.542 224.427 277.595C223.626 277.648 222.933 277.041 222.88 276.24C222.827 275.438 223.434 274.746 224.235 274.693C225.037 274.64 225.729 275.247 225.782 276.048Z" fill="#FFDD2C"/>
<path d="M221.266 281.203C221.318 282.005 220.712 282.697 219.911 282.75C219.109 282.803 218.417 282.196 218.364 281.395C218.311 280.594 218.918 279.901 219.719 279.848C220.52 279.796 221.213 280.402 221.266 281.203Z" fill="#FFDD2C"/>
<path d="M229.003 280.692C229.056 281.493 228.449 282.186 227.648 282.239C226.847 282.292 226.154 281.685 226.101 280.884C226.048 280.083 226.655 279.39 227.456 279.337C228.258 279.284 228.95 279.891 229.003 280.692Z" fill="#FFDD2C"/>
<path d="M248.994 274.515C249.047 275.316 248.44 276.008 247.639 276.061C246.838 276.114 246.145 275.507 246.092 274.706C246.04 273.905 246.646 273.213 247.447 273.16C248.249 273.107 248.941 273.713 248.994 274.515Z" fill="#FFDD2C"/>
<path d="M241.512 278.894C241.565 279.696 240.959 280.388 240.157 280.441C239.356 280.494 238.664 279.887 238.611 279.086C238.558 278.285 239.164 277.592 239.966 277.539C240.767 277.487 241.459 278.093 241.512 278.894Z" fill="#FFDD2C"/>
<rect x="158.623" y="288.742" width="76.573" height="56.2182" transform="rotate(-3.77963 158.623 288.742)" fill="#E9EAEC"/>
<mask id="mask0_150_916" style="mask-type:alpha" maskUnits="userSpaceOnUse" x="164" y="294" width="61" height="43">
<rect x="164.215" y="297.196" width="58.256" height="39.8066" rx="9" transform="rotate(-3.77963 164.215 297.196)" fill="#82868F"/>
</mask>
<g mask="url(#mask0_150_916)">
<rect x="164.215" y="297.196" width="58.256" height="39.8066" rx="9" transform="rotate(-3.77963 164.215 297.196)" fill="#82868F"/>
<path d="M149.348 310.472L220.774 354.594L219.726 356.292L148.299 312.169L149.348 310.472Z" fill="#565F6F"/>
<path d="M146.202 315.565L217.628 359.687L216.579 361.385L145.153 317.263L146.202 315.565Z" fill="#565F6F"/>
<path d="M155.641 300.285L227.067 344.407L226.018 346.105L154.592 301.983L155.641 300.285Z" fill="#565F6F"/>
<path d="M152.494 305.378L223.921 349.501L222.872 351.198L151.446 307.076L152.494 305.378Z" fill="#565F6F"/>
<path d="M161.933 290.098L233.36 334.221L232.311 335.919L160.885 291.796L161.933 290.098Z" fill="#565F6F"/>
<path d="M158.787 295.192L230.213 339.314L229.165 341.012L157.738 296.889L158.787 295.192Z" fill="#565F6F"/>
<path d="M168.226 279.912L239.652 324.034L238.603 325.732L167.177 281.61L168.226 279.912Z" fill="#565F6F"/>
<path d="M165.08 285.005L236.506 329.128L235.457 330.825L164.031 286.703L165.08 285.005Z" fill="#565F6F"/>
<path d="M170.493 274.577L241.919 318.7L240.87 320.397L169.444 276.275L170.493 274.577Z" fill="#565F6F"/>
<path d="M172.756 269.363L244.182 313.486L243.133 315.183L171.707 271.061L172.756 269.363Z" fill="#565F6F"/>
</g>
<path d="M190.595 302.172L180.201 302.858C177.407 303.043 176.01 303.135 174.979 303.75C174.072 304.29 173.359 305.104 172.942 306.074C172.469 307.177 172.562 308.574 172.746 311.368L173.113 316.926" stroke="white" stroke-width="2"/>
<path d="M247.832 283.82L231.225 284.917L234.867 340.045L271.619 337.617L269.604 307.109L261.484 307.646L247.832 283.82Z" fill="#F4F5F6"/>
<rect x="155.786" y="289.9" width="74.6345" height="55.2489" transform="rotate(-3.77963 155.786 289.9)" stroke="#848D9B" stroke-width="2"/>
<path d="M247.295 320.768L240.351 334.826M251.775 320.472L244.83 334.53M256.254 320.176L249.31 334.234M260.734 319.88L253.789 333.938" stroke="#A7ABB4" stroke-width="2"/>
<path d="M233.159 284.789L247.675 283.83L261.26 307.728L268.641 307.24L270.588 336.714L259.37 337.455" stroke="#848D9B" stroke-width="2"/>
<path d="M163.912 364.507L257.668 342.702L258.52 355.597L243.74 363.05L164.163 368.307L163.912 364.507Z" fill="#C2C5CB"/>
<path d="M177.845 348.2L255.663 343.059L241.806 359.367L163.923 364.512L177.845 348.2Z" fill="#F4F5F6"/>
<path d="M207.802 355.342L241.238 353.133L243.096 351.3L209.392 353.527L207.802 355.342Z" fill="#CDCFD5"/>
<path d="M206.984 353.686L173.547 355.895L171.69 357.728L205.394 355.501L206.984 353.686Z" fill="#CDCFD5"/>
<path d="M189.375 352.569L223.862 350.291L225.452 348.475L190.966 350.754L189.375 352.569Z" fill="#CDCFD5"/>
<path d="M188.558 350.913L177.258 351.659L175.4 353.492L186.967 352.728L188.558 350.913Z" fill="#CDCFD5"/>
<path d="M244.949 348.898L226.27 350.132L227.86 348.316L246.806 347.065L244.949 348.898Z" fill="#CDCFD5"/>
<path d="M185.161 359.118L214.41 357.186L213.12 358.981L183.871 360.914L185.161 359.118Z" fill="#CDCFD5"/>
<path d="M175.63 348.346L257.933 342.909L258.758 355.396L242.464 363.314L160.444 368.732L160.182 364.759L175.63 348.346Z" stroke="#848D9B" stroke-width="2"/>
<path d="M218.737 263.741L222.905 263.488L223.345 267.851L219.144 267.576L218.737 263.741Z" fill="#FFDD2C"/>
<path d="M156.982 259.229L160.406 262.908L157.347 265.785L154.196 261.584L156.982 259.229Z" fill="#FF4C4C"/>
<rect width="2.90715" height="5.97931" transform="matrix(0.311482 0.950252 -0.944435 0.328698 150.017 284.388)" fill="#FF4C4C"/>
<rect width="4.48029" height="5.33775" transform="matrix(0.631858 0.775084 -0.76767 0.640845 266.834 292.604)" fill="#FF4C4C"/>
<ellipse cx="188.659" cy="253.131" rx="2.47473" ry="2.38502" transform="rotate(-120.319 188.659 253.131)" fill="#FF4C4C"/>
</g>
<mask id="mask1_150_916" style="mask-type:alpha" maskUnits="userSpaceOnUse" x="811" y="294" width="66" height="85">
<path d="M821.101 364.706L811.659 294.154L875.272 326.001L857.215 338.902L876.553 366.008L858.496 378.909L839.158 351.804L821.101 364.706Z" fill="#C4C4C4"/>
</mask>
<g mask="url(#mask1_150_916)">
<path d="M812.853 294.345C812.884 295.265 812.164 296.035 811.245 296.066C810.326 296.097 809.556 295.377 809.525 294.458C809.494 293.538 810.214 292.768 811.133 292.737C812.052 292.706 812.822 293.426 812.853 294.345Z" fill="#006FFF" fill-opacity="0.35"/>
<path d="M816.367 299.783C816.398 300.703 815.678 301.473 814.759 301.504C813.84 301.535 813.07 300.815 813.039 299.895C813.008 298.976 813.728 298.205 814.647 298.174C815.566 298.143 816.336 298.864 816.367 299.783Z" fill="#006FFF" fill-opacity="0.35"/>
<path d="M819.507 294.121C819.538 295.041 818.819 295.811 817.9 295.842C816.981 295.873 816.211 295.153 816.18 294.233C816.149 293.314 816.869 292.543 817.788 292.512C818.707 292.481 819.476 293.202 819.507 294.121Z" fill="#006FFF" fill-opacity="0.35"/>
<path d="M823.021 299.559C823.052 300.478 822.333 301.249 821.414 301.28C820.495 301.311 819.725 300.591 819.694 299.671C819.663 298.751 820.383 297.981 821.302 297.95C822.221 297.919 822.991 298.639 823.021 299.559Z" fill="#006FFF" fill-opacity="0.35"/>
<path d="M826.162 293.897C826.193 294.817 825.473 295.587 824.554 295.618C823.636 295.649 822.866 294.929 822.835 294.009C822.804 293.09 823.524 292.319 824.442 292.288C825.361 292.257 826.131 292.978 826.162 293.897Z" fill="#006FFF" fill-opacity="0.35"/>
<path d="M829.676 299.335C829.707 300.254 828.987 301.025 828.069 301.056C827.15 301.087 826.38 300.366 826.349 299.447C826.318 298.527 827.038 297.757 827.957 297.726C828.875 297.695 829.645 298.415 829.676 299.335Z" fill="#006FFF" fill-opacity="0.35"/>
<path d="M832.817 293.673C832.848 294.592 832.128 295.363 831.209 295.394C830.29 295.425 829.52 294.705 829.49 293.785C829.459 292.866 830.178 292.095 831.097 292.064C832.016 292.033 832.786 292.753 832.817 293.673Z" fill="#006FFF" fill-opacity="0.35"/>
<path d="M836.331 299.111C836.362 300.03 835.642 300.801 834.723 300.832C833.804 300.863 833.035 300.142 833.004 299.223C832.973 298.303 833.692 297.533 834.611 297.502C835.53 297.471 836.3 298.191 836.331 299.111Z" fill="#006FFF" fill-opacity="0.35"/>
<path d="M839.472 293.449C839.503 294.368 838.783 295.139 837.864 295.17C836.945 295.201 836.175 294.48 836.144 293.561C836.113 292.641 836.833 291.871 837.752 291.84C838.671 291.809 839.441 292.529 839.472 293.449Z" fill="#006FFF" fill-opacity="0.35"/>
<path d="M842.986 298.886C843.017 299.806 842.297 300.576 841.378 300.607C840.459 300.638 839.689 299.918 839.658 298.999C839.627 298.079 840.347 297.308 841.266 297.278C842.185 297.247 842.955 297.967 842.986 298.886Z" fill="#006FFF" fill-opacity="0.35"/>
<path d="M846.126 293.225C846.157 294.144 845.438 294.915 844.519 294.946C843.6 294.977 842.83 294.256 842.799 293.337C842.768 292.417 843.488 291.647 844.407 291.616C845.326 291.585 846.096 292.305 846.126 293.225Z" fill="#006FFF" fill-opacity="0.35"/>
<path d="M849.641 298.662C849.671 299.582 848.952 300.352 848.033 300.383C847.114 300.414 846.344 299.694 846.313 298.774C846.282 297.855 847.002 297.084 847.921 297.053C848.84 297.022 849.61 297.743 849.641 298.662Z" fill="#006FFF" fill-opacity="0.35"/>
<path d="M852.781 293C852.812 293.92 852.092 294.69 851.174 294.721C850.255 294.752 849.485 294.032 849.454 293.113C849.423 292.193 850.143 291.422 851.062 291.392C851.98 291.361 852.75 292.081 852.781 293Z" fill="#006FFF" fill-opacity="0.35"/>
<path d="M856.295 298.438C856.326 299.358 855.606 300.128 854.688 300.159C853.769 300.19 852.999 299.47 852.968 298.55C852.937 297.631 853.657 296.86 854.576 296.829C855.494 296.798 856.264 297.519 856.295 298.438Z" fill="#006FFF" fill-opacity="0.35"/>
<path d="M859.436 292.776C859.467 293.696 858.747 294.466 857.828 294.497C856.909 294.528 856.14 293.808 856.109 292.888C856.078 291.969 856.797 291.198 857.716 291.167C858.635 291.136 859.405 291.857 859.436 292.776Z" fill="#006FFF" fill-opacity="0.35"/>
<path d="M862.95 298.214C862.981 299.133 862.261 299.904 861.342 299.935C860.424 299.966 859.654 299.246 859.623 298.326C859.592 297.406 860.312 296.636 861.23 296.605C862.149 296.574 862.919 297.294 862.95 298.214Z" fill="#006FFF" fill-opacity="0.35"/>
<path d="M866.091 292.552C866.122 293.472 865.402 294.242 864.483 294.273C863.564 294.304 862.794 293.584 862.763 292.664C862.732 291.745 863.452 290.974 864.371 290.943C865.29 290.912 866.06 291.633 866.091 292.552Z" fill="#006FFF" fill-opacity="0.35"/>
<path d="M869.605 297.99C869.636 298.909 868.916 299.68 867.997 299.711C867.078 299.742 866.308 299.021 866.277 298.102C866.246 297.182 866.966 296.412 867.885 296.381C868.804 296.35 869.574 297.07 869.605 297.99Z" fill="#006FFF" fill-opacity="0.35"/>
<path d="M872.746 292.328C872.776 293.247 872.057 294.018 871.138 294.049C870.219 294.08 869.449 293.36 869.418 292.44C869.387 291.52 870.107 290.75 871.026 290.719C871.945 290.688 872.715 291.408 872.746 292.328Z" fill="#006FFF" fill-opacity="0.35"/>
<path d="M876.26 297.766C876.291 298.685 875.571 299.456 874.652 299.487C873.733 299.517 872.963 298.797 872.932 297.878C872.901 296.958 873.621 296.188 874.54 296.157C875.459 296.126 876.229 296.846 876.26 297.766Z" fill="#006FFF" fill-opacity="0.35"/>
<path d="M879.4 292.104C879.431 293.023 878.711 293.794 877.793 293.825C876.874 293.856 876.104 293.135 876.073 292.216C876.042 291.296 876.762 290.526 877.681 290.495C878.599 290.464 879.369 291.184 879.4 292.104Z" fill="#006FFF" fill-opacity="0.35"/>
<path d="M882.914 297.541C882.945 298.461 882.225 299.231 881.307 299.262C880.388 299.293 879.618 298.573 879.587 297.653C879.556 296.734 880.276 295.963 881.195 295.933C882.113 295.902 882.883 296.622 882.914 297.541Z" fill="#006FFF" fill-opacity="0.35"/>
<path d="M886.055 291.88C886.086 292.799 885.366 293.57 884.447 293.601C883.529 293.631 882.759 292.911 882.728 291.992C882.697 291.072 883.417 290.302 884.335 290.271C885.254 290.24 886.024 290.96 886.055 291.88Z" fill="#006FFF" fill-opacity="0.35"/>
<path d="M889.569 297.317C889.6 298.237 888.88 299.007 887.961 299.038C887.043 299.069 886.273 298.349 886.242 297.429C886.211 296.51 886.931 295.739 887.849 295.708C888.768 295.677 889.538 296.398 889.569 297.317Z" fill="#006FFF" fill-opacity="0.35"/>
<path d="M813.226 305.445C813.257 306.364 812.537 307.135 811.618 307.166C810.699 307.197 809.93 306.477 809.899 305.557C809.868 304.637 810.587 303.867 811.506 303.836C812.425 303.805 813.195 304.525 813.226 305.445Z" fill="#006FFF" fill-opacity="0.35"/>
<path d="M816.74 310.883C816.771 311.802 816.051 312.573 815.132 312.604C814.213 312.634 813.444 311.914 813.413 310.995C813.382 310.075 814.101 309.305 815.02 309.274C815.939 309.243 816.709 309.963 816.74 310.883Z" fill="#006FFF" fill-opacity="0.35"/>
<path d="M819.881 305.221C819.912 306.14 819.192 306.911 818.273 306.942C817.354 306.973 816.584 306.252 816.553 305.333C816.522 304.413 817.242 303.643 818.161 303.612C819.08 303.581 819.85 304.301 819.881 305.221Z" fill="#006FFF" fill-opacity="0.35"/>
<path d="M823.395 310.658C823.426 311.578 822.706 312.348 821.787 312.379C820.868 312.41 820.098 311.69 820.067 310.77C820.036 309.851 820.756 309.08 821.675 309.05C822.594 309.019 823.364 309.739 823.395 310.658Z" fill="#006FFF" fill-opacity="0.35"/>
<path d="M826.535 304.997C826.566 305.916 825.847 306.687 824.928 306.718C824.009 306.748 823.239 306.028 823.208 305.109C823.177 304.189 823.897 303.419 824.816 303.388C825.735 303.357 826.505 304.077 826.535 304.997Z" fill="#006FFF" fill-opacity="0.35"/>
<path d="M830.05 310.434C830.08 311.354 829.361 312.124 828.442 312.155C827.523 312.186 826.753 311.466 826.722 310.546C826.691 309.627 827.411 308.856 828.33 308.825C829.249 308.794 830.019 309.515 830.05 310.434Z" fill="#006FFF" fill-opacity="0.35"/>
<path d="M833.19 304.772C833.221 305.692 832.501 306.462 831.583 306.493C830.664 306.524 829.894 305.804 829.863 304.884C829.832 303.965 830.552 303.194 831.471 303.164C832.389 303.133 833.159 303.853 833.19 304.772Z" fill="#006FFF" fill-opacity="0.35"/>
<path d="M836.704 310.21C836.735 311.13 836.015 311.9 835.097 311.931C834.178 311.962 833.408 311.242 833.377 310.322C833.346 309.403 834.066 308.632 834.985 308.601C835.903 308.57 836.673 309.291 836.704 310.21Z" fill="#006FFF" fill-opacity="0.35"/>
<path d="M839.845 304.548C839.876 305.468 839.156 306.238 838.237 306.269C837.319 306.3 836.549 305.58 836.518 304.66C836.487 303.741 837.207 302.97 838.125 302.939C839.044 302.908 839.814 303.629 839.845 304.548Z" fill="#006FFF" fill-opacity="0.35"/>
<path d="M843.359 309.986C843.39 310.905 842.67 311.676 841.751 311.707C840.833 311.738 840.063 311.017 840.032 310.098C840.001 309.178 840.721 308.408 841.639 308.377C842.558 308.346 843.328 309.066 843.359 309.986Z" fill="#006FFF" fill-opacity="0.35"/>
<path d="M846.5 304.324C846.531 305.244 845.811 306.014 844.892 306.045C843.973 306.076 843.203 305.356 843.172 304.436C843.141 303.517 843.861 302.746 844.78 302.715C845.699 302.684 846.469 303.405 846.5 304.324Z" fill="#006FFF" fill-opacity="0.35"/>
<path d="M850.014 309.762C850.045 310.681 849.325 311.452 848.406 311.483C847.487 311.514 846.717 310.793 846.686 309.874C846.656 308.954 847.375 308.184 848.294 308.153C849.213 308.122 849.983 308.842 850.014 309.762Z" fill="#006FFF" fill-opacity="0.35"/>
<path d="M853.155 304.1C853.185 305.019 852.466 305.79 851.547 305.821C850.628 305.852 849.858 305.131 849.827 304.212C849.796 303.292 850.516 302.522 851.435 302.491C852.354 302.46 853.124 303.18 853.155 304.1Z" fill="#006FFF" fill-opacity="0.35"/>
<path d="M856.669 309.538C856.7 310.457 855.98 311.228 855.061 311.259C854.142 311.289 853.372 310.569 853.341 309.65C853.31 308.73 854.03 307.96 854.949 307.929C855.868 307.898 856.638 308.618 856.669 309.538Z" fill="#006FFF" fill-opacity="0.35"/>
<path d="M859.809 303.876C859.84 304.795 859.12 305.566 858.202 305.597C857.283 305.628 856.513 304.907 856.482 303.988C856.451 303.068 857.171 302.298 858.09 302.267C859.008 302.236 859.778 302.956 859.809 303.876Z" fill="#006FFF" fill-opacity="0.35"/>
<path d="M863.323 309.313C863.354 310.233 862.635 311.003 861.716 311.034C860.797 311.065 860.027 310.345 859.996 309.425C859.965 308.506 860.685 307.735 861.604 307.705C862.523 307.674 863.292 308.394 863.323 309.313Z" fill="#006FFF" fill-opacity="0.35"/>
<path d="M866.464 303.652C866.495 304.571 865.775 305.342 864.856 305.373C863.938 305.403 863.168 304.683 863.137 303.764C863.106 302.844 863.826 302.074 864.744 302.043C865.663 302.012 866.433 302.732 866.464 303.652Z" fill="#006FFF" fill-opacity="0.35"/>
<path d="M869.978 309.089C870.009 310.009 869.289 310.779 868.37 310.81C867.452 310.841 866.682 310.121 866.651 309.201C866.62 308.282 867.34 307.511 868.258 307.48C869.177 307.449 869.947 308.17 869.978 309.089Z" fill="#006FFF" fill-opacity="0.35"/>
<path d="M873.119 303.427C873.15 304.347 872.43 305.117 871.511 305.148C870.592 305.179 869.822 304.459 869.791 303.539C869.761 302.62 870.48 301.849 871.399 301.819C872.318 301.788 873.088 302.508 873.119 303.427Z" fill="#006FFF" fill-opacity="0.35"/>
<path d="M876.633 308.865C876.664 309.785 875.944 310.555 875.025 310.586C874.106 310.617 873.336 309.897 873.306 308.977C873.275 308.058 873.994 307.287 874.913 307.256C875.832 307.225 876.602 307.946 876.633 308.865Z" fill="#006FFF" fill-opacity="0.35"/>
<path d="M879.774 303.203C879.805 304.123 879.085 304.893 878.166 304.924C877.247 304.955 876.477 304.235 876.446 303.315C876.415 302.396 877.135 301.625 878.054 301.594C878.973 301.563 879.743 302.284 879.774 303.203Z" fill="#006FFF" fill-opacity="0.35"/>
<path d="M883.288 308.641C883.319 309.56 882.599 310.331 881.68 310.362C880.761 310.393 879.991 309.672 879.96 308.753C879.929 307.833 880.649 307.063 881.568 307.032C882.487 307.001 883.257 307.721 883.288 308.641Z" fill="#006FFF" fill-opacity="0.35"/>
<path d="M886.428 302.979C886.459 303.899 885.74 304.669 884.821 304.7C883.902 304.731 883.132 304.011 883.101 303.091C883.07 302.172 883.79 301.401 884.709 301.37C885.628 301.339 886.397 302.06 886.428 302.979Z" fill="#006FFF" fill-opacity="0.35"/>
<path d="M889.942 308.417C889.973 309.336 889.254 310.107 888.335 310.138C887.416 310.169 886.646 309.448 886.615 308.529C886.584 307.609 887.304 306.839 888.223 306.808C889.142 306.777 889.912 307.497 889.942 308.417Z" fill="#006FFF" fill-opacity="0.35"/>
<path d="M813.599 316.544C813.63 317.464 812.91 318.234 811.992 318.265C811.073 318.296 810.303 317.576 810.272 316.656C810.241 315.737 810.961 314.966 811.88 314.936C812.798 314.905 813.568 315.625 813.599 316.544Z" fill="#006FFF" fill-opacity="0.35"/>
<path d="M817.113 321.982C817.144 322.902 816.424 323.672 815.506 323.703C814.587 323.734 813.817 323.014 813.786 322.094C813.755 321.175 814.475 320.404 815.394 320.373C816.312 320.342 817.082 321.063 817.113 321.982Z" fill="#006FFF" fill-opacity="0.35"/>
<path d="M820.254 316.32C820.285 317.24 819.565 318.01 818.646 318.041C817.728 318.072 816.958 317.352 816.927 316.432C816.896 315.513 817.616 314.742 818.534 314.711C819.453 314.68 820.223 315.401 820.254 316.32Z" fill="#006FFF" fill-opacity="0.35"/>
<path d="M823.768 321.758C823.799 322.677 823.079 323.448 822.16 323.479C821.242 323.51 820.472 322.789 820.441 321.87C820.41 320.95 821.13 320.18 822.048 320.149C822.967 320.118 823.737 320.838 823.768 321.758Z" fill="#006FFF" fill-opacity="0.35"/>
<path d="M826.909 316.096C826.94 317.016 826.22 317.786 825.301 317.817C824.382 317.848 823.612 317.128 823.581 316.208C823.551 315.289 824.27 314.518 825.189 314.487C826.108 314.456 826.878 315.177 826.909 316.096Z" fill="#006FFF" fill-opacity="0.35"/>
<path d="M830.423 321.534C830.454 322.453 829.734 323.224 828.815 323.255C827.896 323.286 827.126 322.565 827.096 321.646C827.065 320.726 827.784 319.956 828.703 319.925C829.622 319.894 830.392 320.614 830.423 321.534Z" fill="#006FFF" fill-opacity="0.35"/>
<path d="M833.564 315.872C833.595 316.791 832.875 317.562 831.956 317.593C831.037 317.624 830.267 316.903 830.236 315.984C830.205 315.064 830.925 314.294 831.844 314.263C832.763 314.232 833.533 314.952 833.564 315.872Z" fill="#006FFF" fill-opacity="0.35"/>
<path d="M837.078 321.31C837.109 322.229 836.389 323 835.47 323.031C834.551 323.061 833.781 322.341 833.75 321.422C833.719 320.502 834.439 319.732 835.358 319.701C836.277 319.67 837.047 320.39 837.078 321.31Z" fill="#006FFF" fill-opacity="0.35"/>
<path d="M840.218 315.648C840.249 316.567 839.53 317.338 838.611 317.369C837.692 317.4 836.922 316.679 836.891 315.76C836.86 314.84 837.58 314.07 838.499 314.039C839.418 314.008 840.187 314.728 840.218 315.648Z" fill="#006FFF" fill-opacity="0.35"/>
<path d="M843.732 321.085C843.763 322.005 843.044 322.775 842.125 322.806C841.206 322.837 840.436 322.117 840.405 321.197C840.374 320.278 841.094 319.507 842.013 319.477C842.932 319.446 843.701 320.166 843.732 321.085Z" fill="#006FFF" fill-opacity="0.35"/>
<path d="M846.873 315.424C846.904 316.343 846.184 317.114 845.265 317.145C844.347 317.175 843.577 316.455 843.546 315.536C843.515 314.616 844.235 313.846 845.153 313.815C846.072 313.784 846.842 314.504 846.873 315.424Z" fill="#006FFF" fill-opacity="0.35"/>
<path d="M850.387 320.861C850.418 321.781 849.698 322.551 848.78 322.582C847.861 322.613 847.091 321.893 847.06 320.973C847.029 320.054 847.749 319.283 848.667 319.252C849.586 319.221 850.356 319.942 850.387 320.861Z" fill="#006FFF" fill-opacity="0.35"/>
<path d="M853.528 315.199C853.559 316.119 852.839 316.889 851.92 316.92C851.001 316.951 850.231 316.231 850.201 315.311C850.17 314.392 850.889 313.621 851.808 313.591C852.727 313.56 853.497 314.28 853.528 315.199Z" fill="#006FFF" fill-opacity="0.35"/>
<path d="M857.042 320.637C857.073 321.557 856.353 322.327 855.434 322.358C854.515 322.389 853.746 321.669 853.715 320.749C853.684 319.83 854.403 319.059 855.322 319.028C856.241 318.997 857.011 319.718 857.042 320.637Z" fill="#006FFF" fill-opacity="0.35"/>
<path d="M860.183 314.975C860.214 315.895 859.494 316.665 858.575 316.696C857.656 316.727 856.886 316.007 856.855 315.087C856.824 314.168 857.544 313.397 858.463 313.366C859.382 313.335 860.152 314.056 860.183 314.975Z" fill="#006FFF" fill-opacity="0.35"/>
<path d="M863.697 320.413C863.728 321.332 863.008 322.103 862.089 322.134C861.17 322.165 860.4 321.444 860.369 320.525C860.338 319.605 861.058 318.835 861.977 318.804C862.896 318.773 863.666 319.493 863.697 320.413Z" fill="#006FFF" fill-opacity="0.35"/>
<path d="M866.837 314.751C866.868 315.671 866.149 316.441 865.23 316.472C864.311 316.503 863.541 315.783 863.51 314.863C863.479 313.944 864.199 313.173 865.118 313.142C866.037 313.111 866.807 313.832 866.837 314.751Z" fill="#006FFF" fill-opacity="0.35"/>
<path d="M870.351 320.189C870.382 321.108 869.663 321.879 868.744 321.91C867.825 321.941 867.055 321.22 867.024 320.301C866.993 319.381 867.713 318.611 868.632 318.58C869.551 318.549 870.321 319.269 870.351 320.189Z" fill="#006FFF" fill-opacity="0.35"/>
<path d="M873.492 314.527C873.523 315.446 872.803 316.217 871.885 316.248C870.966 316.279 870.196 315.558 870.165 314.639C870.134 313.719 870.854 312.949 871.773 312.918C872.691 312.887 873.461 313.607 873.492 314.527Z" fill="#006FFF" fill-opacity="0.35"/>
<path d="M877.006 319.965C877.037 320.884 876.317 321.655 875.399 321.685C874.48 321.716 873.71 320.996 873.679 320.077C873.648 319.157 874.368 318.387 875.287 318.356C876.205 318.325 876.975 319.045 877.006 319.965Z" fill="#006FFF" fill-opacity="0.35"/>
<path d="M880.147 314.303C880.178 315.222 879.458 315.993 878.539 316.024C877.62 316.055 876.851 315.334 876.82 314.415C876.789 313.495 877.508 312.725 878.427 312.694C879.346 312.663 880.116 313.383 880.147 314.303Z" fill="#006FFF" fill-opacity="0.35"/>
<path d="M883.661 319.74C883.692 320.66 882.972 321.43 882.053 321.461C881.135 321.492 880.365 320.772 880.334 319.852C880.303 318.933 881.023 318.162 881.941 318.131C882.86 318.101 883.63 318.821 883.661 319.74Z" fill="#006FFF" fill-opacity="0.35"/>
<path d="M886.802 314.079C886.833 314.998 886.113 315.769 885.194 315.8C884.275 315.83 883.505 315.11 883.474 314.191C883.443 313.271 884.163 312.501 885.082 312.47C886.001 312.439 886.771 313.159 886.802 314.079Z" fill="#006FFF" fill-opacity="0.35"/>
<path d="M890.316 319.516C890.347 320.436 889.627 321.206 888.708 321.237C887.789 321.268 887.019 320.548 886.988 319.628C886.957 318.709 887.677 317.938 888.596 317.907C889.515 317.876 890.285 318.597 890.316 319.516Z" fill="#006FFF" fill-opacity="0.35"/>
<path d="M813.973 327.644C814.004 328.563 813.284 329.334 812.365 329.365C811.446 329.396 810.676 328.675 810.645 327.756C810.614 326.836 811.334 326.066 812.253 326.035C813.172 326.004 813.942 326.724 813.973 327.644Z" fill="#006FFF" fill-opacity="0.35"/>
<path d="M817.487 333.082C817.518 334.001 816.798 334.772 815.879 334.803C814.96 334.833 814.19 334.113 814.159 333.194C814.128 332.274 814.848 331.504 815.767 331.473C816.686 331.442 817.456 332.162 817.487 333.082Z" fill="#006FFF" fill-opacity="0.35"/>
<path d="M820.627 327.42C820.658 328.339 819.939 329.11 819.02 329.141C818.101 329.172 817.331 328.451 817.3 327.532C817.269 326.612 817.989 325.842 818.908 325.811C819.827 325.78 820.596 326.5 820.627 327.42Z" fill="#006FFF" fill-opacity="0.35"/>
<path d="M824.141 332.857C824.172 333.777 823.453 334.547 822.534 334.578C821.615 334.609 820.845 333.889 820.814 332.969C820.783 332.05 821.503 331.279 822.422 331.248C823.341 331.218 824.111 331.938 824.141 332.857Z" fill="#006FFF" fill-opacity="0.35"/>
<path d="M827.282 327.196C827.313 328.115 826.593 328.886 825.674 328.917C824.756 328.947 823.986 328.227 823.955 327.308C823.924 326.388 824.644 325.618 825.562 325.587C826.481 325.556 827.251 326.276 827.282 327.196Z" fill="#006FFF" fill-opacity="0.35"/>
<path d="M830.796 332.633C830.827 333.553 830.107 334.323 829.189 334.354C828.27 334.385 827.5 333.665 827.469 332.745C827.438 331.826 828.158 331.055 829.077 331.024C829.995 330.993 830.765 331.714 830.796 332.633Z" fill="#006FFF" fill-opacity="0.35"/>
<path d="M833.937 326.971C833.968 327.891 833.248 328.661 832.329 328.692C831.41 328.723 830.64 328.003 830.61 327.083C830.579 326.164 831.298 325.393 832.217 325.362C833.136 325.332 833.906 326.052 833.937 326.971Z" fill="#006FFF" fill-opacity="0.35"/>
<path d="M837.451 332.409C837.482 333.329 836.762 334.099 835.843 334.13C834.924 334.161 834.155 333.441 834.124 332.521C834.093 331.602 834.812 330.831 835.731 330.8C836.65 330.769 837.42 331.49 837.451 332.409Z" fill="#006FFF" fill-opacity="0.35"/>
<path d="M840.592 326.747C840.623 327.667 839.903 328.437 838.984 328.468C838.065 328.499 837.295 327.779 837.264 326.859C837.233 325.94 837.953 325.169 838.872 325.138C839.791 325.107 840.561 325.828 840.592 326.747Z" fill="#006FFF" fill-opacity="0.35"/>
<path d="M844.106 332.185C844.137 333.104 843.417 333.875 842.498 333.906C841.579 333.937 840.809 333.216 840.778 332.297C840.747 331.377 841.467 330.607 842.386 330.576C843.305 330.545 844.075 331.265 844.106 332.185Z" fill="#006FFF" fill-opacity="0.35"/>
<path d="M847.246 326.523C847.277 327.443 846.558 328.213 845.639 328.244C844.72 328.275 843.95 327.555 843.919 326.635C843.888 325.716 844.608 324.945 845.527 324.914C846.446 324.883 847.216 325.604 847.246 326.523Z" fill="#006FFF" fill-opacity="0.35"/>
<path d="M850.761 331.961C850.791 332.88 850.072 333.651 849.153 333.682C848.234 333.713 847.464 332.992 847.433 332.073C847.402 331.153 848.122 330.383 849.041 330.352C849.96 330.321 850.73 331.041 850.761 331.961Z" fill="#006FFF" fill-opacity="0.35"/>
<path d="M853.901 326.299C853.932 327.218 853.212 327.989 852.294 328.02C851.375 328.051 850.605 327.33 850.574 326.411C850.543 325.491 851.263 324.721 852.182 324.69C853.1 324.659 853.87 325.379 853.901 326.299Z" fill="#006FFF" fill-opacity="0.35"/>
<path d="M857.415 331.737C857.446 332.656 856.726 333.427 855.808 333.457C854.889 333.488 854.119 332.768 854.088 331.849C854.057 330.929 854.777 330.159 855.696 330.128C856.614 330.097 857.384 330.817 857.415 331.737Z" fill="#006FFF" fill-opacity="0.35"/>
<path d="M860.556 326.075C860.587 326.994 859.867 327.765 858.948 327.796C858.029 327.827 857.26 327.106 857.229 326.187C857.198 325.267 857.917 324.497 858.836 324.466C859.755 324.435 860.525 325.155 860.556 326.075Z" fill="#006FFF" fill-opacity="0.35"/>
<path d="M864.07 331.512C864.101 332.432 863.381 333.202 862.462 333.233C861.544 333.264 860.774 332.544 860.743 331.624C860.712 330.705 861.432 329.934 862.35 329.903C863.269 329.873 864.039 330.593 864.07 331.512Z" fill="#006FFF" fill-opacity="0.35"/>
<path d="M867.211 325.851C867.242 326.77 866.522 327.541 865.603 327.571C864.684 327.602 863.914 326.882 863.883 325.963C863.852 325.043 864.572 324.273 865.491 324.242C866.41 324.211 867.18 324.931 867.211 325.851Z" fill="#006FFF" fill-opacity="0.35"/>
<path d="M870.725 331.288C870.756 332.208 870.036 332.978 869.117 333.009C868.198 333.04 867.428 332.32 867.397 331.4C867.367 330.481 868.086 329.71 869.005 329.679C869.924 329.648 870.694 330.369 870.725 331.288Z" fill="#006FFF" fill-opacity="0.35"/>
<path d="M873.866 325.626C873.896 326.546 873.177 327.316 872.258 327.347C871.339 327.378 870.569 326.658 870.538 325.738C870.507 324.819 871.227 324.048 872.146 324.017C873.065 323.987 873.835 324.707 873.866 325.626Z" fill="#006FFF" fill-opacity="0.35"/>
<path d="M877.38 331.064C877.411 331.984 876.691 332.754 875.772 332.785C874.853 332.816 874.083 332.096 874.052 331.176C874.021 330.257 874.741 329.486 875.66 329.455C876.579 329.424 877.349 330.145 877.38 331.064Z" fill="#006FFF" fill-opacity="0.35"/>
<path d="M880.52 325.402C880.551 326.322 879.831 327.092 878.913 327.123C877.994 327.154 877.224 326.434 877.193 325.514C877.162 324.595 877.882 323.824 878.801 323.793C879.719 323.762 880.489 324.483 880.52 325.402Z" fill="#006FFF" fill-opacity="0.35"/>
<path d="M884.034 330.84C884.065 331.759 883.346 332.53 882.427 332.561C881.508 332.592 880.738 331.871 880.707 330.952C880.676 330.032 881.396 329.262 882.315 329.231C883.234 329.2 884.003 329.92 884.034 330.84Z" fill="#006FFF" fill-opacity="0.35"/>
<path d="M887.175 325.178C887.206 326.098 886.486 326.868 885.567 326.899C884.649 326.93 883.879 326.21 883.848 325.29C883.817 324.371 884.537 323.6 885.455 323.569C886.374 323.538 887.144 324.259 887.175 325.178Z" fill="#006FFF" fill-opacity="0.35"/>
<path d="M890.689 330.616C890.72 331.535 890 332.306 889.081 332.337C888.163 332.368 887.393 331.647 887.362 330.728C887.331 329.808 888.051 329.038 888.969 329.007C889.888 328.976 890.658 329.696 890.689 330.616Z" fill="#006FFF" fill-opacity="0.35"/>
<path d="M814.346 338.743C814.377 339.663 813.657 340.433 812.738 340.464C811.819 340.495 811.05 339.775 811.019 338.855C810.988 337.936 811.707 337.165 812.626 337.134C813.545 337.104 814.315 337.824 814.346 338.743Z" fill="#006FFF" fill-opacity="0.35"/>
<path d="M817.86 344.181C817.891 345.101 817.171 345.871 816.252 345.902C815.334 345.933 814.564 345.213 814.533 344.293C814.502 343.374 815.222 342.603 816.14 342.572C817.059 342.541 817.829 343.262 817.86 344.181Z" fill="#006FFF" fill-opacity="0.35"/>
<path d="M821.001 338.519C821.032 339.439 820.312 340.209 819.393 340.24C818.474 340.271 817.704 339.551 817.673 338.631C817.642 337.712 818.362 336.941 819.281 336.91C820.2 336.879 820.97 337.6 821.001 338.519Z" fill="#006FFF" fill-opacity="0.35"/>
<path d="M824.515 343.957C824.546 344.876 823.826 345.647 822.907 345.678C821.988 345.709 821.218 344.988 821.187 344.069C821.156 343.149 821.876 342.379 822.795 342.348C823.714 342.317 824.484 343.037 824.515 343.957Z" fill="#006FFF" fill-opacity="0.35"/>
<path d="M827.656 338.295C827.686 339.215 826.967 339.985 826.048 340.016C825.129 340.047 824.359 339.327 824.328 338.407C824.297 337.488 825.017 336.717 825.936 336.686C826.855 336.655 827.625 337.376 827.656 338.295Z" fill="#006FFF" fill-opacity="0.35"/>
<path d="M831.17 343.733C831.2 344.652 830.481 345.423 829.562 345.454C828.643 345.485 827.873 344.764 827.842 343.845C827.811 342.925 828.531 342.155 829.45 342.124C830.369 342.093 831.139 342.813 831.17 343.733Z" fill="#006FFF" fill-opacity="0.35"/>
<path d="M834.31 338.071C834.341 338.99 833.621 339.761 832.703 339.792C831.784 339.823 831.014 339.102 830.983 338.183C830.952 337.263 831.672 336.493 832.591 336.462C833.509 336.431 834.279 337.151 834.31 338.071Z" fill="#006FFF" fill-opacity="0.35"/>
<path d="M837.824 343.509C837.855 344.428 837.135 345.199 836.217 345.229C835.298 345.26 834.528 344.54 834.497 343.621C834.466 342.701 835.186 341.931 836.105 341.9C837.023 341.869 837.793 342.589 837.824 343.509Z" fill="#006FFF" fill-opacity="0.35"/>
<path d="M840.965 337.847C840.996 338.766 840.276 339.537 839.357 339.568C838.439 339.599 837.669 338.878 837.638 337.959C837.607 337.039 838.327 336.269 839.245 336.238C840.164 336.207 840.934 336.927 840.965 337.847Z" fill="#006FFF" fill-opacity="0.35"/>
<path d="M844.479 343.284C844.51 344.204 843.79 344.974 842.871 345.005C841.953 345.036 841.183 344.316 841.152 343.396C841.121 342.477 841.841 341.706 842.759 341.675C843.678 341.645 844.448 342.365 844.479 343.284Z" fill="#006FFF" fill-opacity="0.35"/>
<path d="M847.62 337.623C847.651 338.542 846.931 339.313 846.012 339.343C845.093 339.374 844.323 338.654 844.292 337.735C844.262 336.815 844.981 336.045 845.9 336.014C846.819 335.983 847.589 336.703 847.62 337.623Z" fill="#006FFF" fill-opacity="0.35"/>
<path d="M851.134 343.06C851.165 343.98 850.445 344.75 849.526 344.781C848.607 344.812 847.837 344.092 847.806 343.172C847.776 342.253 848.495 341.482 849.414 341.451C850.333 341.42 851.103 342.141 851.134 343.06Z" fill="#006FFF" fill-opacity="0.35"/>
<path d="M854.275 337.398C854.306 338.318 853.586 339.088 852.667 339.119C851.748 339.15 850.978 338.43 850.947 337.51C850.916 336.591 851.636 335.82 852.555 335.789C853.474 335.759 854.244 336.479 854.275 337.398Z" fill="#006FFF" fill-opacity="0.35"/>
<path d="M857.789 342.836C857.82 343.756 857.1 344.526 856.181 344.557C855.262 344.588 854.492 343.868 854.461 342.948C854.43 342.029 855.15 341.258 856.069 341.227C856.988 341.196 857.758 341.916 857.789 342.836Z" fill="#006FFF" fill-opacity="0.35"/>
<path d="M860.929 337.174C860.96 338.094 860.24 338.864 859.322 338.895C858.403 338.926 857.633 338.206 857.602 337.286C857.571 336.367 858.291 335.596 859.21 335.565C860.128 335.534 860.898 336.255 860.929 337.174Z" fill="#006FFF" fill-opacity="0.35"/>
<path d="M864.443 342.612C864.474 343.531 863.755 344.302 862.836 344.333C861.917 344.364 861.147 343.643 861.116 342.724C861.085 341.804 861.805 341.034 862.724 341.003C863.643 340.972 864.412 341.692 864.443 342.612Z" fill="#006FFF" fill-opacity="0.35"/>
<path d="M867.584 336.95C867.615 337.87 866.895 338.64 865.976 338.671C865.058 338.702 864.288 337.982 864.257 337.062C864.226 336.143 864.946 335.372 865.864 335.341C866.783 335.31 867.553 336.03 867.584 336.95Z" fill="#006FFF" fill-opacity="0.35"/>
<path d="M871.098 342.388C871.129 343.307 870.409 344.078 869.49 344.109C868.572 344.14 867.802 343.419 867.771 342.5C867.74 341.58 868.46 340.81 869.378 340.779C870.297 340.748 871.067 341.468 871.098 342.388Z" fill="#006FFF" fill-opacity="0.35"/>
<path d="M874.239 336.726C874.27 337.645 873.55 338.416 872.631 338.447C871.712 338.478 870.942 337.757 870.912 336.838C870.881 335.918 871.6 335.148 872.519 335.117C873.438 335.086 874.208 335.806 874.239 336.726Z" fill="#006FFF" fill-opacity="0.35"/>
<path d="M877.753 342.163C877.784 343.083 877.064 343.854 876.145 343.884C875.226 343.915 874.456 343.195 874.426 342.276C874.395 341.356 875.114 340.586 876.033 340.555C876.952 340.524 877.722 341.244 877.753 342.163Z" fill="#006FFF" fill-opacity="0.35"/>
<path d="M880.894 336.502C880.925 337.421 880.205 338.192 879.286 338.223C878.367 338.254 877.597 337.533 877.566 336.614C877.535 335.694 878.255 334.924 879.174 334.893C880.093 334.862 880.863 335.582 880.894 336.502Z" fill="#006FFF" fill-opacity="0.35"/>
<path d="M884.408 341.939C884.439 342.859 883.719 343.629 882.8 343.66C881.881 343.691 881.111 342.971 881.08 342.051C881.049 341.132 881.769 340.361 882.688 340.33C883.607 340.299 884.377 341.02 884.408 341.939Z" fill="#006FFF" fill-opacity="0.35"/>
<path d="M887.548 336.277C887.579 337.197 886.86 337.968 885.941 337.998C885.022 338.029 884.252 337.309 884.221 336.39C884.19 335.47 884.91 334.7 885.829 334.669C886.748 334.638 887.517 335.358 887.548 336.277Z" fill="#006FFF" fill-opacity="0.35"/>
<path d="M891.062 341.715C891.093 342.635 890.374 343.405 889.455 343.436C888.536 343.467 887.766 342.747 887.735 341.827C887.704 340.908 888.424 340.137 889.343 340.106C890.262 340.075 891.032 340.796 891.062 341.715Z" fill="#006FFF" fill-opacity="0.35"/>
<path d="M814.719 349.843C814.75 350.762 814.03 351.533 813.112 351.564C812.193 351.595 811.423 350.874 811.392 349.955C811.361 349.035 812.081 348.265 813 348.234C813.918 348.203 814.688 348.923 814.719 349.843Z" fill="#006FFF" fill-opacity="0.35"/>
<path d="M818.233 355.281C818.264 356.2 817.545 356.971 816.626 357.001C815.707 357.032 814.937 356.312 814.906 355.393C814.875 354.473 815.595 353.703 816.514 353.672C817.433 353.641 818.202 354.361 818.233 355.281Z" fill="#006FFF" fill-opacity="0.35"/>
<path d="M821.374 349.619C821.405 350.538 820.685 351.309 819.766 351.34C818.848 351.371 818.078 350.65 818.047 349.731C818.016 348.811 818.736 348.041 819.654 348.01C820.573 347.979 821.343 348.699 821.374 349.619Z" fill="#006FFF" fill-opacity="0.35"/>
<path d="M824.888 355.056C824.919 355.976 824.199 356.746 823.28 356.777C822.362 356.808 821.592 356.088 821.561 355.168C821.53 354.249 822.25 353.478 823.168 353.447C824.087 353.417 824.857 354.137 824.888 355.056Z" fill="#006FFF" fill-opacity="0.35"/>
<path d="M828.029 349.395C828.06 350.314 827.34 351.085 826.421 351.115C825.502 351.146 824.732 350.426 824.701 349.507C824.671 348.587 825.39 347.817 826.309 347.786C827.228 347.755 827.998 348.475 828.029 349.395Z" fill="#006FFF" fill-opacity="0.35"/>
<path d="M831.543 354.832C831.574 355.752 830.854 356.522 829.935 356.553C829.016 356.584 828.246 355.864 828.216 354.944C828.185 354.025 828.904 353.254 829.823 353.223C830.742 353.192 831.512 353.913 831.543 354.832Z" fill="#006FFF" fill-opacity="0.35"/>
<path d="M834.684 349.17C834.715 350.09 833.995 350.86 833.076 350.891C832.157 350.922 831.387 350.202 831.356 349.282C831.325 348.363 832.045 347.592 832.964 347.561C833.883 347.531 834.653 348.251 834.684 349.17Z" fill="#006FFF" fill-opacity="0.35"/>
<path d="M838.198 354.608C838.229 355.528 837.509 356.298 836.59 356.329C835.671 356.36 834.901 355.64 834.87 354.72C834.839 353.801 835.559 353.03 836.478 352.999C837.397 352.968 838.167 353.688 838.198 354.608Z" fill="#006FFF" fill-opacity="0.35"/>
<path d="M841.338 348.946C841.369 349.866 840.65 350.636 839.731 350.667C838.812 350.698 838.042 349.978 838.011 349.058C837.98 348.139 838.7 347.368 839.619 347.337C840.538 347.306 841.307 348.027 841.338 348.946Z" fill="#006FFF" fill-opacity="0.35"/>
<path d="M844.852 354.384C844.883 355.303 844.164 356.074 843.245 356.105C842.326 356.136 841.556 355.415 841.525 354.496C841.494 353.576 842.214 352.806 843.133 352.775C844.052 352.744 844.822 353.464 844.852 354.384Z" fill="#006FFF" fill-opacity="0.35"/>
<path d="M847.993 348.722C848.024 349.642 847.304 350.412 846.385 350.443C845.467 350.474 844.697 349.754 844.666 348.834C844.635 347.915 845.355 347.144 846.273 347.113C847.192 347.082 847.962 347.802 847.993 348.722Z" fill="#006FFF" fill-opacity="0.35"/>
<path d="M851.507 354.16C851.538 355.079 850.818 355.85 849.9 355.881C848.981 355.912 848.211 355.191 848.18 354.272C848.149 353.352 848.869 352.582 849.788 352.551C850.706 352.52 851.476 353.24 851.507 354.16Z" fill="#006FFF" fill-opacity="0.35"/>
<path d="M854.648 348.498C854.679 349.417 853.959 350.188 853.04 350.219C852.121 350.25 851.351 349.529 851.321 348.61C851.29 347.69 852.009 346.92 852.928 346.889C853.847 346.858 854.617 347.578 854.648 348.498Z" fill="#006FFF" fill-opacity="0.35"/>
<path d="M858.162 353.935C858.193 354.855 857.473 355.625 856.554 355.656C855.635 355.687 854.866 354.967 854.835 354.048C854.804 353.128 855.523 352.358 856.442 352.327C857.361 352.296 858.131 353.016 858.162 353.935Z" fill="#006FFF" fill-opacity="0.35"/>
<path d="M861.303 348.274C861.334 349.193 860.614 349.964 859.695 349.995C858.776 350.026 858.006 349.305 857.975 348.386C857.944 347.466 858.664 346.696 859.583 346.665C860.502 346.634 861.272 347.354 861.303 348.274Z" fill="#006FFF" fill-opacity="0.35"/>
<path d="M864.817 353.711C864.848 354.631 864.128 355.401 863.209 355.432C862.29 355.463 861.52 354.743 861.489 353.823C861.458 352.904 862.178 352.133 863.097 352.102C864.016 352.071 864.786 352.792 864.817 353.711Z" fill="#006FFF" fill-opacity="0.35"/>
<path d="M867.957 348.049C867.988 348.969 867.269 349.74 866.35 349.77C865.431 349.801 864.661 349.081 864.63 348.162C864.599 347.242 865.319 346.472 866.238 346.441C867.157 346.41 867.927 347.13 867.957 348.049Z" fill="#006FFF" fill-opacity="0.35"/>
<path d="M871.472 353.487C871.502 354.407 870.783 355.177 869.864 355.208C868.945 355.239 868.175 354.519 868.144 353.599C868.113 352.68 868.833 351.909 869.752 351.878C870.671 351.847 871.441 352.568 871.472 353.487Z" fill="#006FFF" fill-opacity="0.35"/>
<path d="M874.612 347.825C874.643 348.745 873.923 349.515 873.005 349.546C872.086 349.577 871.316 348.857 871.285 347.937C871.254 347.018 871.974 346.247 872.893 346.216C873.811 346.185 874.581 346.906 874.612 347.825Z" fill="#006FFF" fill-opacity="0.35"/>
<path d="M878.126 353.263C878.157 354.182 877.437 354.953 876.519 354.984C875.6 355.015 874.83 354.295 874.799 353.375C874.768 352.456 875.488 351.685 876.407 351.654C877.325 351.623 878.095 352.343 878.126 353.263Z" fill="#006FFF" fill-opacity="0.35"/>
<path d="M881.267 347.601C881.298 348.521 880.578 349.291 879.659 349.322C878.74 349.353 877.971 348.633 877.94 347.713C877.909 346.794 878.628 346.023 879.547 345.992C880.466 345.961 881.236 346.682 881.267 347.601Z" fill="#006FFF" fill-opacity="0.35"/>
<path d="M884.781 353.039C884.812 353.958 884.092 354.729 883.173 354.76C882.255 354.791 881.485 354.07 881.454 353.151C881.423 352.231 882.143 351.461 883.061 351.43C883.98 351.399 884.75 352.119 884.781 353.039Z" fill="#006FFF" fill-opacity="0.35"/>
<path d="M887.922 347.377C887.953 348.296 887.233 349.067 886.314 349.098C885.395 349.129 884.625 348.409 884.594 347.489C884.563 346.57 885.283 345.799 886.202 345.768C887.121 345.737 887.891 346.457 887.922 347.377Z" fill="#006FFF" fill-opacity="0.35"/>
<path d="M891.436 352.815C891.467 353.734 890.747 354.505 889.828 354.536C888.909 354.567 888.139 353.846 888.108 352.927C888.078 352.007 888.797 351.237 889.716 351.206C890.635 351.175 891.405 351.895 891.436 352.815Z" fill="#006FFF" fill-opacity="0.35"/>
<path d="M815.093 360.942C815.124 361.862 814.404 362.632 813.485 362.663C812.566 362.694 811.796 361.974 811.765 361.054C811.734 360.135 812.454 359.364 813.373 359.333C814.292 359.302 815.062 360.023 815.093 360.942Z" fill="#006FFF" fill-opacity="0.35"/>
<path d="M818.607 366.38C818.638 367.299 817.918 368.07 816.999 368.101C816.08 368.132 815.31 367.412 815.279 366.492C815.248 365.573 815.968 364.802 816.887 364.771C817.806 364.74 818.576 365.46 818.607 366.38Z" fill="#006FFF" fill-opacity="0.35"/>
<path d="M821.747 360.718C821.778 361.638 821.059 362.408 820.14 362.439C819.221 362.47 818.451 361.75 818.42 360.83C818.389 359.911 819.109 359.14 820.028 359.109C820.947 359.078 821.717 359.799 821.747 360.718Z" fill="#006FFF" fill-opacity="0.35"/>
<path d="M825.261 366.156C825.292 367.075 824.573 367.846 823.654 367.877C822.735 367.908 821.965 367.187 821.934 366.268C821.903 365.348 822.623 364.578 823.542 364.547C824.461 364.516 825.231 365.236 825.261 366.156Z" fill="#006FFF" fill-opacity="0.35"/>
<path d="M828.402 360.494C828.433 361.414 827.713 362.184 826.795 362.215C825.876 362.246 825.106 361.526 825.075 360.606C825.044 359.687 825.764 358.916 826.683 358.885C827.601 358.854 828.371 359.574 828.402 360.494Z" fill="#006FFF" fill-opacity="0.35"/>
<path d="M831.916 365.932C831.947 366.851 831.227 367.622 830.309 367.653C829.39 367.684 828.62 366.963 828.589 366.044C828.558 365.124 829.278 364.354 830.197 364.323C831.115 364.292 831.885 365.012 831.916 365.932Z" fill="#006FFF" fill-opacity="0.35"/>
<path d="M835.057 360.27C835.088 361.189 834.368 361.96 833.449 361.991C832.53 362.022 831.761 361.301 831.73 360.382C831.699 359.462 832.418 358.692 833.337 358.661C834.256 358.63 835.026 359.35 835.057 360.27Z" fill="#006FFF" fill-opacity="0.35"/>
<path d="M838.571 365.707C838.602 366.627 837.882 367.397 836.963 367.428C836.044 367.459 835.275 366.739 835.244 365.82C835.213 364.9 835.932 364.13 836.851 364.099C837.77 364.068 838.54 364.788 838.571 365.707Z" fill="#006FFF" fill-opacity="0.35"/>
<path d="M841.712 360.046C841.743 360.965 841.023 361.736 840.104 361.767C839.185 361.798 838.415 361.077 838.384 360.158C838.353 359.238 839.073 358.468 839.992 358.437C840.911 358.406 841.681 359.126 841.712 360.046Z" fill="#006FFF" fill-opacity="0.35"/>
<path d="M845.226 365.483C845.257 366.403 844.537 367.173 843.618 367.204C842.699 367.235 841.929 366.515 841.898 365.595C841.867 364.676 842.587 363.905 843.506 363.874C844.425 363.843 845.195 364.564 845.226 365.483Z" fill="#006FFF" fill-opacity="0.35"/>
<path d="M848.366 359.821C848.397 360.741 847.678 361.511 846.759 361.542C845.84 361.573 845.07 360.853 845.039 359.934C845.008 359.014 845.728 358.244 846.647 358.213C847.566 358.182 848.336 358.902 848.366 359.821Z" fill="#006FFF" fill-opacity="0.35"/>
<path d="M851.881 365.259C851.911 366.179 851.192 366.949 850.273 366.98C849.354 367.011 848.584 366.291 848.553 365.371C848.522 364.452 849.242 363.681 850.161 363.65C851.08 363.619 851.85 364.34 851.881 365.259Z" fill="#006FFF" fill-opacity="0.35"/>
<path d="M855.021 359.597C855.052 360.517 854.332 361.287 853.414 361.318C852.495 361.349 851.725 360.629 851.694 359.709C851.663 358.79 852.383 358.019 853.302 357.988C854.22 357.957 854.99 358.678 855.021 359.597Z" fill="#006FFF" fill-opacity="0.35"/>
<path d="M858.535 365.035C858.566 365.954 857.846 366.725 856.928 366.756C856.009 366.787 855.239 366.067 855.208 365.147C855.177 364.228 855.897 363.457 856.816 363.426C857.734 363.395 858.504 364.115 858.535 365.035Z" fill="#006FFF" fill-opacity="0.35"/>
<path d="M861.676 359.373C861.707 360.293 860.987 361.063 860.068 361.094C859.15 361.125 858.38 360.405 858.349 359.485C858.318 358.566 859.038 357.795 859.956 357.764C860.875 357.733 861.645 358.454 861.676 359.373Z" fill="#006FFF" fill-opacity="0.35"/>
<path d="M865.19 364.811C865.221 365.73 864.501 366.501 863.582 366.532C862.664 366.563 861.894 365.842 861.863 364.923C861.832 364.003 862.552 363.233 863.47 363.202C864.389 363.171 865.159 363.891 865.19 364.811Z" fill="#006FFF" fill-opacity="0.35"/>
<path d="M868.331 359.149C868.362 360.068 867.642 360.839 866.723 360.87C865.804 360.901 865.034 360.181 865.003 359.261C864.972 358.342 865.692 357.571 866.611 357.54C867.53 357.509 868.3 358.229 868.331 359.149Z" fill="#006FFF" fill-opacity="0.35"/>
<path d="M871.845 364.587C871.876 365.506 871.156 366.277 870.237 366.308C869.318 366.339 868.548 365.618 868.517 364.699C868.487 363.779 869.206 363.009 870.125 362.978C871.044 362.947 871.814 363.667 871.845 364.587Z" fill="#006FFF" fill-opacity="0.35"/>
<path d="M874.986 358.925C875.016 359.844 874.297 360.615 873.378 360.646C872.459 360.677 871.689 359.956 871.658 359.037C871.627 358.117 872.347 357.347 873.266 357.316C874.185 357.285 874.955 358.005 874.986 358.925Z" fill="#006FFF" fill-opacity="0.35"/>
<path d="M878.5 364.362C878.531 365.282 877.811 366.052 876.892 366.083C875.973 366.114 875.203 365.394 875.172 364.475C875.141 363.555 875.861 362.785 876.78 362.754C877.699 362.723 878.469 363.443 878.5 364.362Z" fill="#006FFF" fill-opacity="0.35"/>
<path d="M881.64 358.701C881.671 359.62 880.951 360.391 880.033 360.422C879.114 360.453 878.344 359.732 878.313 358.813C878.282 357.893 879.002 357.123 879.921 357.092C880.839 357.061 881.609 357.781 881.64 358.701Z" fill="#006FFF" fill-opacity="0.35"/>
<path d="M885.154 364.138C885.185 365.058 884.466 365.828 883.547 365.859C882.628 365.89 881.858 365.17 881.827 364.25C881.796 363.331 882.516 362.56 883.435 362.529C884.354 362.498 885.123 363.219 885.154 364.138Z" fill="#006FFF" fill-opacity="0.35"/>
<path d="M888.295 358.476C888.326 359.396 887.606 360.166 886.687 360.197C885.769 360.228 884.999 359.508 884.968 358.589C884.937 357.669 885.657 356.899 886.575 356.868C887.494 356.837 888.264 357.557 888.295 358.476Z" fill="#006FFF" fill-opacity="0.35"/>
<path d="M891.809 363.914C891.84 364.834 891.12 365.604 890.201 365.635C889.283 365.666 888.513 364.946 888.482 364.026C888.451 363.107 889.171 362.336 890.089 362.305C891.008 362.274 891.778 362.995 891.809 363.914Z" fill="#006FFF" fill-opacity="0.35"/>
<path d="M815.466 372.042C815.497 372.961 814.777 373.732 813.858 373.763C812.939 373.794 812.17 373.073 812.139 372.154C812.108 371.234 812.827 370.464 813.746 370.433C814.665 370.402 815.435 371.122 815.466 372.042Z" fill="#006FFF" fill-opacity="0.35"/>
<path d="M818.98 377.479C819.011 378.399 818.291 379.169 817.372 379.2C816.454 379.231 815.684 378.511 815.653 377.592C815.622 376.672 816.342 375.902 817.26 375.871C818.179 375.84 818.949 376.56 818.98 377.479Z" fill="#006FFF" fill-opacity="0.35"/>
<path d="M822.121 371.818C822.152 372.737 821.432 373.508 820.513 373.539C819.594 373.57 818.824 372.849 818.793 371.93C818.762 371.01 819.482 370.24 820.401 370.209C821.32 370.178 822.09 370.898 822.121 371.818Z" fill="#006FFF" fill-opacity="0.35"/>
<path d="M825.635 377.255C825.666 378.175 824.946 378.945 824.027 378.976C823.108 379.007 822.338 378.287 822.307 377.367C822.277 376.448 822.996 375.677 823.915 375.646C824.834 375.615 825.604 376.336 825.635 377.255Z" fill="#006FFF" fill-opacity="0.35"/>
<path d="M828.776 371.593C828.806 372.513 828.087 373.283 827.168 373.314C826.249 373.345 825.479 372.625 825.448 371.706C825.417 370.786 826.137 370.016 827.056 369.985C827.975 369.954 828.745 370.674 828.776 371.593Z" fill="#006FFF" fill-opacity="0.35"/>
<path d="M832.29 377.031C832.321 377.951 831.601 378.721 830.682 378.752C829.763 378.783 828.993 378.063 828.962 377.143C828.931 376.224 829.651 375.453 830.57 375.422C831.489 375.391 832.259 376.112 832.29 377.031Z" fill="#006FFF" fill-opacity="0.35"/>
<path d="M835.43 371.369C835.461 372.289 834.741 373.059 833.823 373.09C832.904 373.121 832.134 372.401 832.103 371.481C832.072 370.562 832.792 369.791 833.711 369.76C834.629 369.729 835.399 370.45 835.43 371.369Z" fill="#006FFF" fill-opacity="0.35"/>
<path d="M838.944 376.807C838.975 377.726 838.255 378.497 837.337 378.528C836.418 378.559 835.648 377.839 835.617 376.919C835.586 376 836.306 375.229 837.225 375.198C838.143 375.167 838.913 375.887 838.944 376.807Z" fill="#006FFF" fill-opacity="0.35"/>
<path d="M842.085 371.145C842.116 372.065 841.396 372.835 840.477 372.866C839.559 372.897 838.789 372.177 838.758 371.257C838.727 370.338 839.447 369.567 840.365 369.536C841.284 369.505 842.054 370.226 842.085 371.145Z" fill="#006FFF" fill-opacity="0.35"/>
<path d="M845.599 376.583C845.63 377.502 844.91 378.273 843.991 378.304C843.073 378.335 842.303 377.614 842.272 376.695C842.241 375.775 842.961 375.005 843.879 374.974C844.798 374.943 845.568 375.663 845.599 376.583Z" fill="#006FFF" fill-opacity="0.35"/>
<path d="M848.74 370.921C848.771 371.84 848.051 372.611 847.132 372.642C846.213 372.673 845.443 371.953 845.412 371.033C845.382 370.114 846.101 369.343 847.02 369.312C847.939 369.281 848.709 370.001 848.74 370.921Z" fill="#006FFF" fill-opacity="0.35"/>
<path d="M852.254 376.359C852.285 377.278 851.565 378.049 850.646 378.08C849.727 378.111 848.957 377.39 848.927 376.471C848.896 375.551 849.615 374.781 850.534 374.75C851.453 374.719 852.223 375.439 852.254 376.359Z" fill="#006FFF" fill-opacity="0.35"/>
<path d="M855.395 370.697C855.426 371.616 854.706 372.387 853.787 372.418C852.868 372.449 852.098 371.728 852.067 370.809C852.036 369.889 852.756 369.119 853.675 369.088C854.594 369.057 855.364 369.777 855.395 370.697Z" fill="#006FFF" fill-opacity="0.35"/>
<path d="M858.909 376.134C858.94 377.054 858.22 377.824 857.301 377.855C856.382 377.886 855.612 377.166 855.581 376.247C855.55 375.327 856.27 374.557 857.189 374.526C858.108 374.495 858.878 375.215 858.909 376.134Z" fill="#006FFF" fill-opacity="0.35"/>
<path d="M862.049 370.473C862.08 371.392 861.361 372.163 860.442 372.194C859.523 372.225 858.753 371.504 858.722 370.585C858.691 369.665 859.411 368.895 860.33 368.864C861.249 368.833 862.018 369.553 862.049 370.473Z" fill="#006FFF" fill-opacity="0.35"/>
<path d="M865.563 375.91C865.594 376.83 864.875 377.6 863.956 377.631C863.037 377.662 862.267 376.942 862.236 376.022C862.205 375.103 862.925 374.332 863.844 374.301C864.763 374.27 865.532 374.991 865.563 375.91Z" fill="#006FFF" fill-opacity="0.35"/>
<path d="M868.704 370.248C868.735 371.168 868.015 371.938 867.096 371.969C866.178 372 865.408 371.28 865.377 370.361C865.346 369.441 866.066 368.671 866.984 368.64C867.903 368.609 868.673 369.329 868.704 370.248Z" fill="#006FFF" fill-opacity="0.35"/>
<path d="M872.218 375.686C872.249 376.606 871.529 377.376 870.611 377.407C869.692 377.438 868.922 376.718 868.891 375.798C868.86 374.879 869.58 374.108 870.499 374.077C871.417 374.046 872.187 374.767 872.218 375.686Z" fill="#006FFF" fill-opacity="0.35"/>
<path d="M875.359 370.024C875.39 370.944 874.67 371.714 873.751 371.745C872.832 371.776 872.062 371.056 872.032 370.136C872.001 369.217 872.72 368.446 873.639 368.415C874.558 368.384 875.328 369.105 875.359 370.024Z" fill="#006FFF" fill-opacity="0.35"/>
<path d="M878.873 375.462C878.904 376.381 878.184 377.152 877.265 377.183C876.346 377.214 875.577 376.494 875.546 375.574C875.515 374.655 876.234 373.884 877.153 373.853C878.072 373.822 878.842 374.542 878.873 375.462Z" fill="#006FFF" fill-opacity="0.35"/>
<path d="M882.014 369.8C882.045 370.72 881.325 371.49 880.406 371.521C879.487 371.552 878.717 370.832 878.686 369.912C878.655 368.993 879.375 368.222 880.294 368.191C881.213 368.16 881.983 368.881 882.014 369.8Z" fill="#006FFF" fill-opacity="0.35"/>
<path d="M885.528 375.238C885.559 376.157 884.839 376.928 883.92 376.959C883.001 376.99 882.231 376.269 882.2 375.35C882.169 374.43 882.889 373.66 883.808 373.629C884.727 373.598 885.497 374.318 885.528 375.238Z" fill="#006FFF" fill-opacity="0.35"/>
<path d="M888.668 369.576C888.699 370.495 887.98 371.266 887.061 371.297C886.142 371.328 885.372 370.608 885.341 369.688C885.31 368.769 886.03 367.998 886.949 367.967C887.868 367.936 888.638 368.656 888.668 369.576Z" fill="#006FFF" fill-opacity="0.35"/>
<path d="M892.182 375.014C892.213 375.933 891.494 376.704 890.575 376.735C889.656 376.766 888.886 376.045 888.855 375.126C888.824 374.206 889.544 373.436 890.463 373.405C891.382 373.374 892.152 374.094 892.182 375.014Z" fill="#006FFF" fill-opacity="0.35"/>
</g>
<path d="M830.737 347.753L821.921 281.885L881.312 311.617L864.453 323.662L882.508 348.968L865.65 361.014L847.595 335.708L830.737 347.753Z" fill="#F5F9FF" stroke="black" stroke-width="2"/>
<path opacity="0.5" d="M830.878 292.66L836.64 333.269M852.88 330.562L867.024 351.679" stroke="#66A9FF" stroke-width="2"/>
<g clip-path="url(#clip1_150_916)">
<path d="M1090.71 116.877L1024.67 112.467L1039.71 95.3274L1041.37 70.3984C1042 61.0305 1050.1 53.9433 1059.46 54.5689L1094.71 56.9223C1104.08 57.5478 1111.16 65.6492 1110.54 75.0172L1108.8 101.047C1108.18 110.415 1100.07 117.502 1090.71 116.877Z" fill="white" stroke="#006FFF" stroke-width="2"/>
<path d="M1087.96 129.714L1127.96 132.385L1120.61 118.185L1121.54 104.235C1122.17 94.8673 1115.08 86.766 1105.71 86.1405L1090.93 85.1535C1081.57 84.528 1073.47 91.6152 1072.84 100.983L1072.13 111.619C1071.5 120.987 1078.59 129.089 1087.96 129.714Z" fill="#2DE09E"/>
<path d="M1076.82 114.799L1090.12 116.183C1099.71 117.181 1108.2 110.021 1108.84 100.407L1109.45 91.2729" stroke="#002F75" stroke-opacity="0.21" stroke-width="2"/>
<path d="M1085.69 106.572C1086.07 105.289 1087.29 104.442 1088.63 104.531V104.531C1090.46 104.653 1091.71 106.444 1091.18 108.204L1090.96 108.959C1090.58 110.242 1089.36 111.09 1088.02 111.001V111.001C1086.19 110.879 1084.95 109.088 1085.47 107.328L1085.69 106.572Z" fill="white"/>
<path d="M1095.4 107.042C1095.72 105.866 1096.82 105.078 1098.04 105.159V105.159C1099.65 105.267 1100.76 106.823 1100.34 108.382L1099.97 109.739C1099.65 110.916 1098.55 111.704 1097.33 111.622V111.622C1095.72 111.515 1094.61 109.959 1095.03 108.399L1095.4 107.042Z" fill="white"/>
<path d="M1104.35 107.64C1104.67 106.464 1105.77 105.676 1106.99 105.757V105.757C1108.6 105.865 1109.71 107.421 1109.29 108.98L1108.92 110.337C1108.6 111.513 1107.5 112.301 1106.28 112.22V112.22C1104.67 112.112 1103.56 110.556 1103.98 108.997L1104.35 107.64Z" fill="white"/>
<path d="M1041.53 106.235C1037.85 109.407 1037.48 114.924 1040.71 118.557L1056.98 136.873L1076.1 121.129C1079.79 117.957 1080.16 112.441 1076.92 108.807C1073.69 105.173 1068.08 104.799 1064.4 107.97L1058.99 112.644L1054.06 107.072C1050.83 103.438 1045.22 103.064 1041.53 106.235Z" fill="#FF5454"/>
<mask id="mask2_150_916" style="mask-type:alpha" maskUnits="userSpaceOnUse" x="1038" y="104" width="42" height="33">
<path d="M1041.53 106.235C1037.85 109.407 1037.48 114.924 1040.71 118.557L1056.98 136.873L1076.1 121.129C1079.79 117.957 1080.16 112.441 1076.92 108.807C1073.69 105.173 1068.08 104.799 1064.4 107.97L1058.99 112.644L1054.06 107.072C1050.83 103.438 1045.22 103.064 1041.53 106.235Z" fill="#FF5454"/>
</mask>
<g mask="url(#mask2_150_916)">
<path fill-rule="evenodd" clip-rule="evenodd" d="M1074.4 107.347C1074.54 107.36 1074.67 107.373 1074.81 107.386C1074.86 107.675 1074.3 107.621 1074.4 107.347Z" fill="#FFBB54"/>
<path fill-rule="evenodd" clip-rule="evenodd" d="M1076.34 109.238C1076.53 109.179 1076.84 109.24 1076.86 109.56C1076.89 110.058 1076.04 110.135 1076.03 109.618C1076.03 109.463 1076.04 109.332 1076.34 109.238Z" fill="#FFBB54"/>
<path fill-rule="evenodd" clip-rule="evenodd" d="M1072.73 109.03C1072.76 109.468 1072.56 109.631 1072.14 109.519C1071.72 109.12 1072.42 108.547 1072.73 109.03Z" fill="#FFBB54"/>
<path fill-rule="evenodd" clip-rule="evenodd" d="M1068.58 108.77C1068.57 109.04 1068.41 109.123 1068.14 109.069C1068.11 109.006 1068.09 108.942 1068.01 108.921C1067.93 108.465 1068.54 108.435 1068.58 108.77Z" fill="#FFBB54"/>
<path fill-rule="evenodd" clip-rule="evenodd" d="M1064.17 108.281C1064.21 108.285 1064.26 108.289 1064.3 108.294C1064.29 108.35 1064.33 108.36 1064.37 108.368C1064.36 108.413 1064.36 108.458 1064.35 108.503C1064.3 108.485 1064.29 108.523 1064.28 108.564C1064.23 108.56 1064.19 108.555 1064.14 108.551C1064.16 108.495 1064.12 108.485 1064.08 108.477C1064.09 108.432 1064.09 108.387 1064.09 108.342C1064.15 108.36 1064.16 108.321 1064.17 108.281Z" fill="#FFBB54"/>
<path fill-rule="evenodd" clip-rule="evenodd" d="M1074.06 110.93C1075.08 110.613 1074.86 112.296 1073.96 111.944C1073.55 111.784 1073.6 111.073 1074.06 110.93Z" fill="#FFBB54"/>
<path fill-rule="evenodd" clip-rule="evenodd" d="M1078.13 111.319C1079.16 111.002 1078.94 112.685 1078.04 112.333C1077.62 112.173 1077.67 111.462 1078.13 111.319Z" fill="#FFBB54"/>
<path fill-rule="evenodd" clip-rule="evenodd" d="M1069.91 110.602C1070.14 110.433 1070.56 110.645 1070.64 110.809C1070.82 111.598 1069.91 111.692 1069.64 111.259C1069.67 110.962 1069.65 110.621 1069.91 110.602Z" fill="#FFBB54"/>
<path fill-rule="evenodd" clip-rule="evenodd" d="M1065.96 110.294C1066.15 110.235 1066.46 110.297 1066.48 110.616C1066.51 111.114 1065.66 111.191 1065.65 110.674C1065.65 110.519 1065.66 110.388 1065.96 110.294Z" fill="#FFBB54"/>
<path fill-rule="evenodd" clip-rule="evenodd" d="M1061.71 110.298C1061.74 109.88 1062.31 109.935 1062.26 110.35C1062.11 110.573 1061.81 110.545 1061.71 110.298Z" fill="#FFBB54"/>
<path fill-rule="evenodd" clip-rule="evenodd" d="M1071.91 112.635C1072.25 112.59 1072.68 112.766 1072.67 113.254C1072.66 114.177 1071.22 114.093 1071.31 113.192C1071.33 112.978 1071.41 112.7 1071.91 112.635Z" fill="#FFBB54"/>
<path fill-rule="evenodd" clip-rule="evenodd" d="M1075.91 113.018C1076.99 112.795 1076.94 114.347 1076.06 114.328C1075.75 114.322 1075.36 114.112 1075.37 113.649C1075.38 113.249 1075.51 113.102 1075.91 113.018Z" fill="#FFBB54"/>
<path fill-rule="evenodd" clip-rule="evenodd" d="M1067.83 112.314C1068.27 112.241 1068.54 112.493 1068.53 112.859C1068.5 113.6 1067.28 113.692 1067.29 112.877C1067.3 112.648 1067.32 112.398 1067.83 112.314Z" fill="#FFBB54"/>
<path fill-rule="evenodd" clip-rule="evenodd" d="M1064.28 112.18C1064.56 112.805 1063.81 113.215 1063.4 112.778C1063.11 112.153 1063.87 111.743 1064.28 112.18Z" fill="#FFBB54"/>
<path fill-rule="evenodd" clip-rule="evenodd" d="M1060.05 111.913C1060.04 112.049 1060.03 112.184 1060.01 112.319C1059.92 112.404 1059.71 112.358 1059.53 112.341C1059.28 111.979 1059.74 111.6 1060.05 111.913Z" fill="#FFBB54"/>
<path fill-rule="evenodd" clip-rule="evenodd" d="M1069.61 114.395C1070.14 114.303 1070.52 114.584 1070.51 115.095C1070.48 116.152 1068.97 116.018 1069 115.087C1069.01 114.812 1069.08 114.488 1069.61 114.395Z" fill="#FFBB54"/>
<path fill-rule="evenodd" clip-rule="evenodd" d="M1073.55 114.771C1073.76 114.708 1074.08 114.699 1074.24 114.768C1074.27 114.783 1074.27 114.896 1074.29 114.91C1074.32 114.926 1074.41 114.9 1074.43 114.923C1074.48 114.982 1074.44 115.062 1074.48 115.132C1074.49 115.15 1074.6 115.2 1074.61 115.213C1074.7 115.62 1074.51 115.92 1074.32 116.073C1074.18 116.186 1073.84 116.373 1073.42 116.191C1073.39 116.177 1073.39 116.063 1073.36 116.049C1073.33 116.033 1073.25 116.06 1073.23 116.036C1073.17 115.978 1073.22 115.897 1073.18 115.827C1073.17 115.809 1073.05 115.759 1073.05 115.747C1072.95 115.324 1073.07 114.92 1073.55 114.771Z" fill="#FFBB54"/>
<path fill-rule="evenodd" clip-rule="evenodd" d="M1077.63 115.16C1077.83 115.097 1078.16 115.088 1078.31 115.157C1078.35 115.172 1078.34 115.285 1078.37 115.299C1078.4 115.315 1078.48 115.289 1078.5 115.312C1078.56 115.37 1078.51 115.451 1078.55 115.521C1078.56 115.539 1078.68 115.589 1078.68 115.602C1078.77 116.009 1078.58 116.309 1078.39 116.461C1078.26 116.575 1077.91 116.762 1077.49 116.58C1077.46 116.566 1077.46 116.452 1077.44 116.438C1077.41 116.422 1077.32 116.449 1077.3 116.425C1077.25 116.367 1077.3 116.286 1077.25 116.216C1077.24 116.198 1077.13 116.148 1077.12 116.135C1077.03 115.713 1077.15 115.309 1077.63 115.16Z" fill="#FFBB54"/>
<path fill-rule="evenodd" clip-rule="evenodd" d="M1065.53 114.074C1065.88 114.002 1066.37 114.227 1066.36 114.699C1066.36 115.103 1065.97 115.391 1065.68 115.385C1065.02 115.37 1064.66 114.254 1065.53 114.074Z" fill="#FFBB54"/>
<path fill-rule="evenodd" clip-rule="evenodd" d="M1061.45 113.82C1062.47 113.503 1062.25 115.186 1061.35 114.835C1060.94 114.674 1060.98 113.963 1061.45 113.82Z" fill="#FFBB54"/>
<path fill-rule="evenodd" clip-rule="evenodd" d="M1057.89 113.754C1057.92 114.192 1057.72 114.355 1057.29 114.243C1056.88 113.844 1057.57 113.271 1057.89 113.754Z" fill="#FFBB54"/>
<path fill-rule="evenodd" clip-rule="evenodd" d="M1071.54 116.489C1071.57 116.487 1071.61 116.423 1071.68 116.435C1072.17 116.512 1072.5 116.93 1072.49 117.33C1072.47 117.81 1071.97 118.214 1071.58 118.199C1071.16 118.183 1070.66 117.767 1070.71 117.23C1070.76 116.78 1071.09 116.527 1071.54 116.489Z" fill="#FFBB54"/>
<path fill-rule="evenodd" clip-rule="evenodd" d="M1075.55 116.872C1076.89 116.703 1076.8 118.638 1075.66 118.588C1075.16 118.567 1074.73 118.223 1074.79 117.618C1074.83 117.156 1075.04 116.935 1075.55 116.872Z" fill="#FFBB54"/>
<path fill-rule="evenodd" clip-rule="evenodd" d="M1067.39 116.162C1067.86 116.09 1068.39 116.405 1068.34 117.003C1068.29 117.456 1067.87 117.756 1067.51 117.743C1067.13 117.729 1066.65 117.438 1066.71 116.847C1066.75 116.436 1066.92 116.233 1067.39 116.162Z" fill="#FFBB54"/>
<path fill-rule="evenodd" clip-rule="evenodd" d="M1063.44 115.853C1063.57 115.848 1063.75 115.831 1063.85 115.892C1063.92 115.932 1064.15 116.222 1064.16 116.263C1064.22 116.449 1064.16 116.82 1064.09 116.939C1064.07 116.978 1063.71 117.249 1063.72 117.244C1063.05 117.474 1062.51 116.631 1062.8 116.133C1062.8 116.13 1063.12 115.844 1063.17 115.827C1063.25 115.804 1063.37 115.856 1063.44 115.853Z" fill="#FFBB54"/>
<path fill-rule="evenodd" clip-rule="evenodd" d="M1059.36 115.6C1059.57 115.582 1059.82 115.688 1059.89 115.787C1060.02 115.974 1059.93 116.524 1059.73 116.659C1059.55 116.788 1059.04 116.765 1058.86 116.507C1058.75 116.355 1058.77 115.854 1058.94 115.696C1059.03 115.611 1059.2 115.612 1059.36 115.6Z" fill="#FFBB54"/>
<path fill-rule="evenodd" clip-rule="evenodd" d="M1055.66 115.588C1055.69 116.026 1055.49 116.189 1055.06 116.077C1054.65 115.678 1055.34 115.105 1055.66 115.588Z" fill="#FFBB54"/>
<path fill-rule="evenodd" clip-rule="evenodd" d="M1069.38 118.262C1069.64 118.259 1069.96 118.358 1070.11 118.536C1070.41 118.896 1070.26 119.661 1069.98 119.889C1069.65 120.16 1068.91 120.104 1068.62 119.759C1068.52 119.632 1068.39 119.208 1068.42 118.989C1068.44 118.862 1068.61 118.533 1068.68 118.468C1068.83 118.312 1069.11 118.265 1069.38 118.262Z" fill="#FFBB54"/>
<path fill-rule="evenodd" clip-rule="evenodd" d="M1073.25 118.632C1073.47 118.595 1073.64 118.562 1073.8 118.616C1074.04 118.694 1074.4 119.158 1074.4 119.492C1074.41 120.048 1073.95 120.492 1073.49 120.496C1073.03 120.5 1072.37 120.205 1072.5 119.378C1072.55 119.03 1072.74 118.719 1073.25 118.632Z" fill="#FFBB54"/>
<path fill-rule="evenodd" clip-rule="evenodd" d="M1077.33 119.021C1077.54 118.984 1077.71 118.951 1077.88 119.005C1078.11 119.083 1078.48 119.547 1078.48 119.881C1078.48 120.437 1078.02 120.881 1077.56 120.885C1077.11 120.889 1076.45 120.593 1076.57 119.767C1076.62 119.419 1076.82 119.108 1077.33 119.021Z" fill="#FFBB54"/>
<path fill-rule="evenodd" clip-rule="evenodd" d="M1065.3 117.941C1065.7 117.934 1066.2 118.268 1066.18 118.775C1066.16 119.18 1065.74 119.662 1065.27 119.644C1064.85 119.628 1064.33 119.24 1064.41 118.607C1064.41 118.626 1064.49 118.385 1064.51 118.343C1064.6 118.155 1064.85 117.949 1065.3 117.941Z" fill="#FFBB54"/>
<path fill-rule="evenodd" clip-rule="evenodd" d="M1061.08 117.674C1061.61 117.582 1061.98 117.863 1061.97 118.374C1061.94 119.431 1060.44 119.297 1060.46 118.366C1060.47 118.091 1060.54 117.767 1061.08 117.674Z" fill="#FFBB54"/>
<path fill-rule="evenodd" clip-rule="evenodd" d="M1057.06 117.427C1057.3 117.388 1057.54 117.461 1057.66 117.621C1057.67 117.637 1057.76 117.911 1057.76 117.972C1057.75 118.342 1057.41 118.599 1057.15 118.596C1056.57 118.588 1056.15 117.577 1057.06 117.427Z" fill="#FFBB54"/>
<path fill-rule="evenodd" clip-rule="evenodd" d="M1053.43 117.422C1053.46 117.86 1053.26 118.023 1052.83 117.911C1052.41 117.512 1053.11 116.939 1053.43 117.422Z" fill="#FFBB54"/>
<path fill-rule="evenodd" clip-rule="evenodd" d="M1071.03 120.398C1071.25 120.365 1071.39 120.326 1071.58 120.382C1071.87 120.47 1072.23 120.893 1072.25 121.265C1072.28 121.904 1071.8 122.38 1071.32 122.404C1070.72 122.435 1070.04 121.971 1070.2 121.138C1070.27 120.8 1070.48 120.48 1071.03 120.398Z" fill="#FFBB54"/>
<path fill-rule="evenodd" clip-rule="evenodd" d="M1075.03 120.781C1075.3 120.729 1075.55 120.72 1075.72 120.778C1075.88 120.833 1076.3 121.268 1076.33 121.519C1076.48 122.513 1075.52 122.977 1074.85 122.741C1074.69 122.686 1074.26 122.216 1074.23 122C1074.14 121.413 1074.41 120.9 1075.03 120.781Z" fill="#FFBB54"/>
<path fill-rule="evenodd" clip-rule="evenodd" d="M1066.95 120.077C1067.16 120.043 1067.32 120.007 1067.5 120.061C1067.73 120.132 1067.91 120.407 1068 120.519C1068.21 120.785 1068.01 121.598 1067.74 121.79C1067.69 121.825 1067.64 121.81 1067.6 121.845C1067.47 121.948 1066.84 121.979 1066.57 121.815C1066.55 121.797 1066.54 121.687 1066.52 121.674C1066.49 121.657 1066.41 121.684 1066.38 121.661C1066.28 121.555 1066.18 121.263 1066.16 121.094C1066.12 120.595 1066.36 120.168 1066.95 120.077Z" fill="#FFBB54"/>
<path fill-rule="evenodd" clip-rule="evenodd" d="M1062.93 119.762C1064.28 119.594 1064.19 121.528 1063.04 121.478C1062.55 121.457 1062.12 121.113 1062.18 120.508C1062.22 120.046 1062.43 119.825 1062.93 119.762Z" fill="#FFBB54"/>
<path fill-rule="evenodd" clip-rule="evenodd" d="M1058.78 119.502C1059.25 119.389 1059.71 119.635 1059.75 120.072C1059.8 120.558 1059.44 120.935 1059.12 120.967C1058.24 121.052 1057.83 119.727 1058.78 119.502Z" fill="#FFBB54"/>
<path fill-rule="evenodd" clip-rule="evenodd" d="M1054.89 119.268C1055.11 119.25 1055.36 119.356 1055.42 119.455C1055.55 119.642 1055.47 120.191 1055.27 120.327C1055.08 120.456 1054.57 120.433 1054.4 120.175C1054.29 120.022 1054.3 119.522 1054.47 119.364C1054.56 119.279 1054.74 119.28 1054.89 119.268Z" fill="#FFBB54"/>
<path fill-rule="evenodd" clip-rule="evenodd" d="M1051.13 119.249C1051.11 119.384 1051.1 119.52 1051.09 119.655C1050.99 119.74 1050.79 119.693 1050.61 119.677C1050.35 119.315 1050.82 118.936 1051.13 119.249Z" fill="#FFBB54"/>
<path fill-rule="evenodd" clip-rule="evenodd" d="M1068.94 122.177C1068.96 122.176 1069.01 122.105 1069.08 122.123C1069.54 122.23 1069.76 122.442 1069.91 122.748C1069.94 122.812 1070.08 123.065 1070.07 123.241C1070.03 124.082 1069.02 124.543 1068.35 124.032C1068.14 123.871 1067.85 123.564 1067.89 123.101C1067.9 122.969 1068 122.669 1068.08 122.573C1068.1 122.55 1068.21 122.539 1068.22 122.518C1068.34 122.311 1068.51 122.196 1068.94 122.177Z" fill="#FFBB54"/>
<path fill-rule="evenodd" clip-rule="evenodd" d="M1072.81 122.547C1073.14 122.487 1073.29 122.474 1073.49 122.544C1073.7 122.615 1074.13 123.07 1074.16 123.427C1074.24 124.155 1073.62 124.879 1072.74 124.656C1072.3 124.541 1071.79 124.087 1071.98 123.287C1072.05 123.009 1072.3 122.64 1072.81 122.547Z" fill="#FFBB54"/>
<path fill-rule="evenodd" clip-rule="evenodd" d="M1064.86 121.856C1066.28 121.775 1066.17 123.96 1064.81 123.83C1064.36 123.788 1063.82 123.411 1063.88 122.718C1063.93 122.189 1064.29 121.888 1064.86 121.856Z" fill="#FFBB54"/>
<path fill-rule="evenodd" clip-rule="evenodd" d="M1060.63 121.589C1061.16 121.491 1061.69 121.774 1061.73 122.308C1061.77 122.826 1061.38 123.295 1060.95 123.325C1060.49 123.357 1059.83 123.103 1059.95 122.275C1060 121.954 1060.14 121.682 1060.63 121.589Z" fill="#FFBB54"/>
<path fill-rule="evenodd" clip-rule="evenodd" d="M1056.61 121.342C1057.14 121.25 1057.52 121.531 1057.51 122.041C1057.48 123.099 1055.97 122.965 1056 122.034C1056.01 121.759 1056.08 121.435 1056.61 121.342Z" fill="#FFBB54"/>
<path fill-rule="evenodd" clip-rule="evenodd" d="M1052.52 121.156C1053.55 120.839 1053.33 122.522 1052.42 122.17C1052.01 122.01 1052.06 121.299 1052.52 121.156Z" fill="#FFBB54"/>
<path fill-rule="evenodd" clip-rule="evenodd" d="M1048.33 121.302C1048.35 120.883 1048.93 120.938 1048.87 121.353C1048.72 121.577 1048.42 121.548 1048.33 121.302Z" fill="#FFBB54"/>
<path fill-rule="evenodd" clip-rule="evenodd" d="M1070.65 124.32C1071.42 124.217 1072.13 124.782 1071.96 125.673C1071.87 126.138 1071.37 126.576 1070.91 126.596C1070.35 126.621 1069.5 126.127 1069.68 125.182C1069.75 124.787 1070.05 124.401 1070.65 124.32Z" fill="#FFBB54"/>
<path fill-rule="evenodd" clip-rule="evenodd" d="M1066.57 123.998C1067.66 123.853 1068.1 124.862 1067.72 125.609C1067.54 125.963 1066.85 126.348 1066.17 126.007C1065.51 125.676 1065.39 124.156 1066.57 123.998Z" fill="#FFBB54"/>
<path fill-rule="evenodd" clip-rule="evenodd" d="M1062.63 123.69C1064.05 123.609 1063.93 125.794 1062.57 125.664C1062.13 125.622 1061.59 125.245 1061.65 124.552C1061.7 124.023 1062.06 123.722 1062.63 123.69Z" fill="#FFBB54"/>
<path fill-rule="evenodd" clip-rule="evenodd" d="M1058.47 123.43C1059.81 123.262 1059.73 125.196 1058.58 125.146C1058.08 125.125 1057.66 124.781 1057.71 124.176C1057.76 123.714 1057.97 123.493 1058.47 123.43Z" fill="#FFBB54"/>
<path fill-rule="evenodd" clip-rule="evenodd" d="M1054.52 123.189C1054.64 123.184 1054.82 123.167 1054.93 123.228C1054.99 123.268 1055.22 123.558 1055.23 123.598C1055.3 123.785 1055.24 124.156 1055.17 124.275C1055.15 124.314 1054.78 124.585 1054.8 124.58C1054.12 124.81 1053.58 123.967 1053.87 123.469C1053.88 123.465 1054.2 123.179 1054.25 123.163C1054.32 123.139 1054.44 123.192 1054.52 123.189Z" fill="#FFBB54"/>
<path fill-rule="evenodd" clip-rule="evenodd" d="M1050.89 123.184C1051.17 123.809 1050.42 124.219 1050.01 123.782C1049.72 123.157 1050.48 122.747 1050.89 123.184Z" fill="#FFBB54"/>
<path fill-rule="evenodd" clip-rule="evenodd" d="M1046.32 122.952C1046.36 122.957 1046.41 122.961 1046.45 122.965C1046.44 123.021 1046.47 123.032 1046.51 123.039C1046.51 123.084 1046.51 123.129 1046.5 123.174C1046.44 123.157 1046.43 123.195 1046.43 123.236C1046.38 123.231 1046.34 123.227 1046.29 123.223C1046.31 123.166 1046.27 123.156 1046.23 123.149C1046.23 123.103 1046.24 123.058 1046.24 123.013C1046.3 123.031 1046.31 122.993 1046.32 122.952Z" fill="#FFBB54"/>
<path fill-rule="evenodd" clip-rule="evenodd" d="M1068.28 126.141C1068.94 126.008 1069.17 126.157 1069.48 126.528C1069.67 126.757 1069.93 127.166 1069.7 127.777C1069.63 127.994 1069.17 128.405 1068.89 128.45C1068.29 128.543 1067.97 128.322 1067.7 127.995C1067.51 127.766 1067.25 127.378 1067.47 126.745C1067.53 126.587 1067.85 126.227 1068.28 126.141Z" fill="#FFBB54"/>
<path fill-rule="evenodd" clip-rule="evenodd" d="M1064.27 125.826C1064.6 125.766 1064.75 125.753 1064.96 125.823C1065.16 125.894 1065.59 126.349 1065.63 126.706C1065.7 127.434 1065.08 128.158 1064.21 127.935C1063.76 127.82 1063.25 127.366 1063.45 126.566C1063.51 126.288 1063.77 125.919 1064.27 125.826Z" fill="#FFBB54"/>
<path fill-rule="evenodd" clip-rule="evenodd" d="M1060.39 125.524C1061.82 125.443 1061.7 127.628 1060.34 127.498C1059.9 127.456 1059.35 127.079 1059.42 126.386C1059.47 125.857 1059.83 125.556 1060.39 125.524Z" fill="#FFBB54"/>
<path fill-rule="evenodd" clip-rule="evenodd" d="M1056.37 125.277C1056.77 125.27 1057.27 125.604 1057.25 126.111C1057.24 126.516 1056.82 126.999 1056.35 126.98C1055.93 126.964 1055.41 126.576 1055.49 125.943C1055.49 125.962 1055.56 125.721 1055.58 125.679C1055.67 125.491 1055.92 125.285 1056.37 125.277Z" fill="#FFBB54"/>
<path fill-rule="evenodd" clip-rule="evenodd" d="M1052.14 125.078C1052.49 125.006 1052.99 125.23 1052.98 125.703C1052.97 126.106 1052.58 126.394 1052.29 126.388C1051.63 126.374 1051.27 125.257 1052.14 125.078Z" fill="#FFBB54"/>
<path fill-rule="evenodd" clip-rule="evenodd" d="M1048.11 124.966C1048.3 124.907 1048.61 124.968 1048.63 125.288C1048.66 125.786 1047.81 125.863 1047.8 125.345C1047.8 125.191 1047.81 125.06 1048.11 124.966Z" fill="#FFBB54"/>
<path fill-rule="evenodd" clip-rule="evenodd" d="M1066.33 127.933C1066.34 127.933 1066.35 127.865 1066.41 127.872C1067.06 127.951 1067.62 128.511 1067.59 129.144C1067.55 129.883 1066.71 130.512 1065.98 130.219C1065.5 130.028 1064.86 129.352 1065.24 128.579C1065.4 128.266 1065.79 127.953 1066.33 127.933Z" fill="#FFBB54"/>
<path fill-rule="evenodd" clip-rule="evenodd" d="M1062.11 127.666C1063.19 127.521 1063.63 128.53 1063.26 129.277C1063.08 129.631 1062.39 130.016 1061.71 129.675C1061.05 129.344 1060.93 127.824 1062.11 127.666Z" fill="#FFBB54"/>
<path fill-rule="evenodd" clip-rule="evenodd" d="M1058.02 127.413C1058.24 127.379 1058.39 127.343 1058.57 127.397C1058.8 127.467 1058.99 127.743 1059.07 127.854C1059.29 128.121 1059.08 128.934 1058.82 129.126C1058.77 129.161 1058.72 129.146 1058.67 129.181C1058.54 129.284 1057.91 129.314 1057.65 129.151C1057.62 129.133 1057.62 129.023 1057.59 129.009C1057.56 128.993 1057.48 129.02 1057.46 128.996C1057.36 128.891 1057.25 128.599 1057.24 128.43C1057.2 127.931 1057.43 127.504 1058.02 127.413Z" fill="#FFBB54"/>
<path fill-rule="evenodd" clip-rule="evenodd" d="M1054 127.165C1054.47 127.093 1055.01 127.409 1054.95 128.006C1054.9 128.46 1054.48 128.759 1054.12 128.746C1053.74 128.732 1053.26 128.441 1053.32 127.851C1053.36 127.44 1053.53 127.237 1054 127.165Z" fill="#FFBB54"/>
<path fill-rule="evenodd" clip-rule="evenodd" d="M1049.97 126.986C1050.41 126.913 1050.69 127.165 1050.68 127.53C1050.65 128.271 1049.43 128.364 1049.44 127.549C1049.44 127.319 1049.47 127.07 1049.97 126.986Z" fill="#FFBB54"/>
<path fill-rule="evenodd" clip-rule="evenodd" d="M1063.82 129.809C1064.48 129.676 1064.71 129.825 1065.02 130.196C1065.21 130.424 1065.46 130.834 1065.24 131.445C1065.16 131.662 1064.71 132.073 1064.42 132.118C1063.83 132.211 1063.51 131.99 1063.23 131.663C1063.04 131.434 1062.78 131.046 1063.01 130.413C1063.07 130.255 1063.39 129.895 1063.82 129.809Z" fill="#FFBB54"/>
<path fill-rule="evenodd" clip-rule="evenodd" d="M1060.01 129.513C1060.04 129.512 1060.08 129.441 1060.15 129.459C1060.61 129.566 1060.83 129.778 1060.99 130.084C1061.02 130.148 1061.15 130.401 1061.14 130.576C1061.11 131.418 1060.1 131.879 1059.42 131.367C1059.21 131.207 1058.92 130.9 1058.96 130.437C1058.98 130.305 1059.07 130.005 1059.15 129.909C1059.17 129.886 1059.28 129.874 1059.29 129.854C1059.41 129.647 1059.58 129.532 1060.01 129.513Z" fill="#FFBB54"/>
<path fill-rule="evenodd" clip-rule="evenodd" d="M1055.99 129.266C1056.25 129.263 1056.57 129.361 1056.72 129.54C1057.02 129.899 1056.87 130.664 1056.59 130.892C1056.26 131.164 1055.52 131.107 1055.23 130.763C1055.13 130.636 1055 130.212 1055.03 129.993C1055.05 129.866 1055.22 129.536 1055.29 129.472C1055.44 129.315 1055.73 129.269 1055.99 129.266Z" fill="#FFBB54"/>
<path fill-rule="evenodd" clip-rule="evenodd" d="M1051.76 129.067C1052.29 128.974 1052.67 129.255 1052.66 129.766C1052.63 130.823 1051.12 130.69 1051.15 129.759C1051.16 129.484 1051.23 129.16 1051.76 129.067Z" fill="#FFBB54"/>
<path fill-rule="evenodd" clip-rule="evenodd" d="M1061.73 131.655C1062.49 131.552 1063.21 132.117 1063.04 133.009C1062.95 133.474 1062.45 133.912 1061.99 133.932C1061.42 133.957 1060.57 133.463 1060.75 132.518C1060.83 132.123 1061.12 131.737 1061.73 131.655Z" fill="#FFBB54"/>
<path fill-rule="evenodd" clip-rule="evenodd" d="M1057.64 131.402C1057.86 131.368 1058 131.329 1058.19 131.386C1058.48 131.474 1058.84 131.897 1058.86 132.269C1058.89 132.908 1058.41 133.383 1057.93 133.408C1057.33 133.438 1056.65 132.975 1056.81 132.142C1056.88 131.804 1057.09 131.483 1057.64 131.402Z" fill="#FFBB54"/>
<path fill-rule="evenodd" clip-rule="evenodd" d="M1053.69 131.161C1053.72 131.158 1053.75 131.094 1053.83 131.106C1054.32 131.184 1054.65 131.602 1054.63 132.002C1054.62 132.481 1054.11 132.886 1053.73 132.871C1053.31 132.855 1052.81 132.438 1052.86 131.901C1052.91 131.452 1053.24 131.198 1053.69 131.161Z" fill="#FFBB54"/>
<path fill-rule="evenodd" clip-rule="evenodd" d="M1059.42 133.551C1059.75 133.49 1059.9 133.478 1060.11 133.548C1060.31 133.619 1060.74 134.074 1060.78 134.43C1060.85 135.158 1060.23 135.882 1059.36 135.66C1058.91 135.545 1058.4 135.091 1058.6 134.291C1058.66 134.013 1058.92 133.643 1059.42 133.551Z" fill="#FFBB54"/>
<path fill-rule="evenodd" clip-rule="evenodd" d="M1055.4 133.303C1055.62 133.266 1055.79 133.234 1055.95 133.288C1056.19 133.366 1056.55 133.83 1056.55 134.164C1056.56 134.72 1056.1 135.163 1055.63 135.168C1055.18 135.172 1054.52 134.876 1054.64 134.05C1054.7 133.701 1054.89 133.391 1055.4 133.303Z" fill="#FFBB54"/>
<path fill-rule="evenodd" clip-rule="evenodd" d="M1057.18 135.452C1057.45 135.4 1057.7 135.392 1057.87 135.449C1058.03 135.504 1058.45 135.939 1058.48 136.19C1058.63 137.185 1057.67 137.648 1056.99 137.413C1056.84 137.357 1056.41 136.888 1056.38 136.672C1056.29 136.085 1056.56 135.572 1057.18 135.452Z" fill="#FFBB54"/>
</g>
<path d="M1048.19 90.7013C1053.64 89.3159 1058.24 87.3821 1062.88 84.1428C1065.93 82.0186 1069.47 79.4205 1070.85 75.774C1071.89 73.031 1068.49 74.5544 1067.34 75.3303C1060.77 79.7609 1055.06 92.6288 1060.51 93.6711C1063.68 94.2768 1068.13 91.0655 1070.63 89.5035C1074.74 86.9456 1078.48 83.8115 1081.91 80.3868C1082.43 79.8658 1088.04 73.8381 1084.32 75.2072C1079.48 76.9895 1069.92 85.687 1072.99 91.7812C1076.12 98.0267 1086.59 89.6346 1089.51 87.0204C1090.73 85.9274 1093.55 83.3633 1093.55 83.3633C1093.55 83.3633 1092.96 84.0574 1092.67 84.4038C1091.91 85.2959 1091.18 86.209 1090.52 87.1794C1089.85 88.1583 1087.53 91.3128 1090.09 91.4834C1092.52 91.6456 1094.92 90.5231 1097.34 89.0356" stroke="black" stroke-width="2" stroke-linecap="round" stroke-linejoin="round"/>
</g>
<defs>
<linearGradient id="paint0_linear_150_916" x1="253.298" y1="349.691" x2="232.819" y2="357.636" gradientUnits="userSpaceOnUse">
<stop stop-color="#565F6F"/>
<stop offset="1" stop-color="#565F6F" stop-opacity="0"/>
</linearGradient>
<clipPath id="clip0_150_916">
<rect width="128.55" height="128.55" fill="white" transform="translate(140 244.474) rotate(-3.77963)"/>
</clipPath>
<clipPath id="clip1_150_916">
<rect width="110.917" height="87.2899" fill="white" transform="translate(1024.82 49) rotate(3.82021)"/>
</clipPath>
</defs>
</svg>
